<svg width="45" height="60" viewBox="0 0 45 60" fill="none" xmlns="http://www.w3.org/2000/svg">
<path d="M6.47852 0L13.7727 8.32804H34.1201V31.5594L41.4143 39.8875V0H6.47852Z" fill="#AFB1B8"/>
<path d="M0.489746 7.97705V46.7251H34.4274V31.3231L13.9881 7.98664L0.489746 7.97705ZM27.9624 41.0572H5.85996V14.9972H7.42231V39.2926H27.9624V41.0572Z" fill="#AFB1B8"/>
<path d="M10.2656 53.2742L11.0835 51.5896H11.7671L10.5757 53.8357V55.1443H9.95557V53.8357L8.76172 51.5896H9.44775L10.2656 53.2742ZM13.7764 54.3167H12.3994L12.1113 55.1443H11.4692L12.812 51.5896H13.3662L14.7114 55.1443H14.0669L13.7764 54.3167ZM12.5728 53.8186H13.603L13.0879 52.344L12.5728 53.8186ZM16.2104 54.1848C16.2104 54.0204 16.2552 53.8699 16.3447 53.7332C16.4342 53.5948 16.6108 53.4312 16.8745 53.2424C16.7362 53.0683 16.6393 52.9202 16.584 52.7981C16.5303 52.676 16.5034 52.558 16.5034 52.4441C16.5034 52.1658 16.5881 51.946 16.7573 51.7849C16.9266 51.6222 17.1545 51.5408 17.4409 51.5408C17.6997 51.5408 17.9113 51.6173 18.0757 51.7703C18.2417 51.9216 18.3247 52.1096 18.3247 52.3342C18.3247 52.4823 18.2873 52.6191 18.2124 52.7444C18.1375 52.8681 18.0146 52.9918 17.8438 53.1155L17.6021 53.2913L18.2881 54.1018C18.3874 53.9065 18.437 53.6892 18.437 53.45H18.9521C18.9521 53.8878 18.8496 54.2467 18.6445 54.5266L19.167 55.1443H18.4785L18.2783 54.9075C18.0244 55.0979 17.7217 55.1931 17.3701 55.1931C17.0186 55.1931 16.737 55.1003 16.5254 54.9148C16.3154 54.7276 16.2104 54.4843 16.2104 54.1848ZM17.3872 54.7195C17.5874 54.7195 17.7746 54.6528 17.9487 54.5193L17.1724 53.6038L17.0967 53.6575C16.9014 53.8056 16.8037 53.9749 16.8037 54.1653C16.8037 54.3297 16.8566 54.4631 16.9624 54.5657C17.0682 54.6682 17.2098 54.7195 17.3872 54.7195ZM17.0601 52.4294C17.0601 52.5662 17.1439 52.7379 17.3115 52.9446L17.5825 52.759L17.6582 52.698C17.7591 52.6085 17.8096 52.4937 17.8096 52.3538C17.8096 52.261 17.7746 52.182 17.7046 52.1169C17.6346 52.0502 17.5459 52.0168 17.4385 52.0168C17.3229 52.0168 17.231 52.0559 17.1626 52.134C17.0942 52.2122 17.0601 52.3106 17.0601 52.4294ZM23.5176 53.9871C23.4818 54.3663 23.3418 54.6625 23.0977 54.8757C22.8535 55.0873 22.5288 55.1931 22.1235 55.1931C21.8403 55.1931 21.5905 55.1264 21.374 54.9929C21.1592 54.8578 20.9932 54.6666 20.876 54.4192C20.7588 54.1718 20.6978 53.8845 20.6929 53.5574V53.2253C20.6929 52.8901 20.7523 52.5946 20.8711 52.3391C20.9899 52.0836 21.16 51.8866 21.3813 51.7483C21.6043 51.6099 21.8615 51.5408 22.1528 51.5408C22.5451 51.5408 22.8608 51.6474 23.1001 51.8606C23.3394 52.0738 23.4785 52.3749 23.5176 52.7639H22.9023C22.873 52.5084 22.7982 52.3245 22.6777 52.2122C22.5589 52.0982 22.384 52.0413 22.1528 52.0413C21.8843 52.0413 21.6776 52.1397 21.5327 52.3367C21.3895 52.532 21.3162 52.8193 21.313 53.1985V53.5134C21.313 53.8975 21.3813 54.1905 21.5181 54.3923C21.6564 54.5942 21.8582 54.6951 22.1235 54.6951C22.366 54.6951 22.5483 54.6405 22.6704 54.5315C22.7925 54.4224 22.8698 54.241 22.9023 53.9871H23.5176ZM26.9087 53.4597C26.9087 53.808 26.8485 54.114 26.728 54.3777C26.6076 54.6397 26.4351 54.8416 26.2104 54.9832C25.9875 55.1231 25.7303 55.1931 25.439 55.1931C25.1509 55.1931 24.8937 55.1231 24.6675 54.9832C24.4429 54.8416 24.2687 54.6405 24.145 54.3801C24.0229 54.1197 23.9611 53.8194 23.9595 53.4792V53.2791C23.9595 52.9324 24.0205 52.6264 24.1426 52.3611C24.2663 52.0958 24.4396 51.8931 24.6626 51.7532C24.8872 51.6116 25.1444 51.5408 25.4341 51.5408C25.7238 51.5408 25.9801 51.6108 26.2031 51.7507C26.4277 51.8891 26.6011 52.0893 26.7231 52.3513C26.8452 52.6117 26.9071 52.9153 26.9087 53.262V53.4597ZM26.291 53.2742C26.291 52.8803 26.2161 52.5784 26.0664 52.3684C25.9183 52.1584 25.7075 52.0535 25.4341 52.0535C25.1672 52.0535 24.958 52.1584 24.8066 52.3684C24.6569 52.5767 24.5804 52.8722 24.5771 53.2546V53.4597C24.5771 53.8503 24.6528 54.1523 24.8042 54.3655C24.9572 54.5787 25.1688 54.6853 25.439 54.6853C25.7124 54.6853 25.9224 54.5811 26.0688 54.3728C26.217 54.1645 26.291 53.8601 26.291 53.4597V53.2742Z" fill="#AFB1B8"/>
</svg>
