<svg width="80" height="51" viewBox="0 0 80 51" fill="none" xmlns="http://www.w3.org/2000/svg">
<path d="M12.4022 15.446H12.3995C10.1372 15.446 8.30322 17.5975 8.30322 20.2513V20.2545C8.30322 22.9084 10.1372 25.0598 12.3995 25.0598H12.4022C14.6645 25.0598 16.4985 22.9084 16.4985 20.2545V20.2513C16.4985 17.5975 14.6645 15.446 12.4022 15.446Z" fill="#AFB1B8"/>
<path d="M42.6368 13.9097C42.6304 10.2235 41.3795 6.69035 39.1579 4.08349C36.9363 1.47664 33.925 0.0083701 30.7828 0C27.6397 0.00669652 24.6269 1.47423 22.4042 4.08126C20.1814 6.68829 18.9298 10.2224 18.9233 13.9097V34.2373C18.9233 34.2373 42.6341 31.1392 42.6368 13.9129V13.9097Z" fill="#AFB1B8"/>
<path d="M0 40.9091C0.00569902 43.474 0.876554 45.932 2.42227 47.7459C3.96798 49.5599 6.06289 50.5823 8.24921 50.5898V50.5898C10.4351 50.5823 12.5296 49.5603 14.0752 47.747C15.6208 45.9338 16.492 43.4766 16.4984 40.9122V40.9122V26.7681C16.4984 26.7681 0 28.9253 0 40.9091ZM8.24921 43.4433C7.82196 43.4433 7.40431 43.2947 7.04907 43.0162C6.69383 42.7378 6.41696 42.342 6.25346 41.8789C6.08996 41.4158 6.04718 40.9063 6.13053 40.4147C6.21388 39.9231 6.41962 39.4715 6.72173 39.1171C7.02383 38.7627 7.40874 38.5213 7.82778 38.4235C8.24681 38.3258 8.68115 38.3759 9.07587 38.5678C9.4706 38.7596 9.80797 39.0844 10.0453 39.5011C10.2827 39.9179 10.4094 40.4079 10.4094 40.9091C10.4105 41.2427 10.3554 41.5732 10.2473 41.8818C10.1392 42.1904 9.98026 42.4709 9.77956 42.7072C9.57886 42.9435 9.34036 43.1311 9.07775 43.259C8.81513 43.387 8.53357 43.4528 8.24921 43.4528V43.4433Z" fill="#AFB1B8"/>
<path d="M25.0889 41.0032H23.4014V42.7463H22.5225V38.4807H25.2998V39.1926H23.4014V40.2942H25.0889V41.0032ZM29.3135 40.7102C29.3135 41.1301 29.2393 41.4983 29.0908 41.8147C28.9424 42.1311 28.7295 42.3752 28.4521 42.5471C28.1768 42.719 27.8604 42.8049 27.5029 42.8049C27.1494 42.8049 26.834 42.72 26.5566 42.55C26.2793 42.3801 26.0645 42.1379 25.9121 41.8235C25.7598 41.5071 25.6826 41.1438 25.6807 40.7336V40.5227C25.6807 40.1028 25.7559 39.7336 25.9062 39.4153C26.0586 39.095 26.2725 38.8499 26.5479 38.6799C26.8252 38.5081 27.1416 38.4221 27.4971 38.4221C27.8525 38.4221 28.168 38.5081 28.4434 38.6799C28.7207 38.8499 28.9346 39.095 29.085 39.4153C29.2373 39.7336 29.3135 40.1018 29.3135 40.5198V40.7102ZM28.4229 40.5168C28.4229 40.0696 28.3428 39.7297 28.1826 39.4973C28.0225 39.2649 27.7939 39.1487 27.4971 39.1487C27.2021 39.1487 26.9746 39.2639 26.8145 39.4944C26.6543 39.7229 26.5732 40.0588 26.5713 40.5022V40.7102C26.5713 41.1458 26.6514 41.4836 26.8115 41.7239C26.9717 41.9641 27.2021 42.0842 27.5029 42.0842C27.7979 42.0842 28.0244 41.969 28.1826 41.7385C28.3408 41.5061 28.4209 41.1682 28.4229 40.7249V40.5168ZM32.1641 41.6272C32.1641 41.4612 32.1055 41.3342 31.9883 41.2463C31.8711 41.1565 31.6602 41.0627 31.3555 40.9651C31.0508 40.8655 30.8096 40.7678 30.6318 40.6721C30.1475 40.4104 29.9053 40.0579 29.9053 39.6145C29.9053 39.384 29.9697 39.179 30.0986 38.9993C30.2295 38.8176 30.416 38.676 30.6582 38.5745C30.9023 38.4729 31.1758 38.4221 31.4785 38.4221C31.7832 38.4221 32.0547 38.4778 32.293 38.5891C32.5312 38.6985 32.7158 38.8538 32.8467 39.0549C32.9795 39.2561 33.0459 39.4846 33.0459 39.7405H32.167C32.167 39.5452 32.1055 39.3938 31.9824 39.2864C31.8594 39.177 31.6865 39.1223 31.4639 39.1223C31.249 39.1223 31.082 39.1682 30.9629 39.26C30.8438 39.3499 30.7842 39.469 30.7842 39.6174C30.7842 39.7561 30.8535 39.8723 30.9922 39.9661C31.1328 40.0598 31.3389 40.1477 31.6104 40.2297C32.1104 40.3801 32.4746 40.5667 32.7031 40.7893C32.9316 41.012 33.0459 41.2893 33.0459 41.6213C33.0459 41.9905 32.9062 42.2805 32.627 42.4915C32.3477 42.7004 31.9717 42.8049 31.499 42.8049C31.1709 42.8049 30.8721 42.7454 30.6025 42.6262C30.333 42.5051 30.127 42.3401 29.9844 42.1311C29.8438 41.9221 29.7734 41.6799 29.7734 41.4045H30.6553C30.6553 41.8752 30.9365 42.1106 31.499 42.1106C31.708 42.1106 31.8711 42.0686 31.9883 41.9846C32.1055 41.8987 32.1641 41.7795 32.1641 41.6272ZM36.8545 39.1926H35.5479V42.7463H34.6689V39.1926H33.3799V38.4807H36.8545V39.1926ZM39.9248 40.8977H38.2373V42.0403H40.2178V42.7463H37.3584V38.4807H40.2119V39.1926H38.2373V40.2092H39.9248V40.8977ZM42.3125 41.1848H41.6123V42.7463H40.7334V38.4807H42.3184C42.8223 38.4807 43.2109 38.593 43.4844 38.8176C43.7578 39.0422 43.8945 39.3596 43.8945 39.7698C43.8945 40.0608 43.8311 40.304 43.7041 40.4993C43.5791 40.6926 43.3887 40.8469 43.1328 40.9622L44.0557 42.7053V42.7463H43.1123L42.3125 41.1848ZM41.6123 40.4729H42.3213C42.542 40.4729 42.7129 40.4172 42.834 40.3059C42.9551 40.1926 43.0156 40.0374 43.0156 39.8401C43.0156 39.6389 42.958 39.4807 42.8428 39.3655C42.7295 39.2502 42.5547 39.1926 42.3184 39.1926H41.6123V40.4729ZM46.9385 41.2434V42.7463H46.0596V38.4807H47.7236C48.0439 38.4807 48.3252 38.5393 48.5674 38.6565C48.8115 38.7737 48.999 38.9407 49.1299 39.1575C49.2607 39.3723 49.3262 39.6174 49.3262 39.8928C49.3262 40.3108 49.1826 40.6409 48.8955 40.8831C48.6104 41.1233 48.2148 41.2434 47.709 41.2434H46.9385ZM46.9385 40.5315H47.7236C47.9561 40.5315 48.1328 40.4768 48.2539 40.3674C48.377 40.2581 48.4385 40.1018 48.4385 39.8987C48.4385 39.6897 48.377 39.5208 48.2539 39.3918C48.1309 39.2629 47.9609 39.1965 47.7441 39.1926H46.9385V40.5315ZM52.499 40.8977H50.8115V42.0403H52.792V42.7463H49.9326V38.4807H52.7861V39.1926H50.8115V40.2092H52.499V40.8977ZM56.5771 39.1926H55.2705V42.7463H54.3916V39.1926H53.1025V38.4807H56.5771V39.1926ZM59.6475 40.8977H57.96V42.0403H59.9404V42.7463H57.0811V38.4807H59.9346V39.1926H57.96V40.2092H59.6475V40.8977ZM62.0352 41.1848H61.335V42.7463H60.4561V38.4807H62.041C62.5449 38.4807 62.9336 38.593 63.207 38.8176C63.4805 39.0422 63.6172 39.3596 63.6172 39.7698C63.6172 40.0608 63.5537 40.304 63.4268 40.4993C63.3018 40.6926 63.1113 40.8469 62.8555 40.9622L63.7783 42.7053V42.7463H62.835L62.0352 41.1848ZM61.335 40.4729H62.0439C62.2646 40.4729 62.4355 40.4172 62.5566 40.3059C62.6777 40.1926 62.7383 40.0374 62.7383 39.8401C62.7383 39.6389 62.6807 39.4807 62.5654 39.3655C62.4521 39.2502 62.2773 39.1926 62.041 39.1926H61.335V40.4729ZM66.5 41.6272C66.5 41.4612 66.4414 41.3342 66.3242 41.2463C66.207 41.1565 65.9961 41.0627 65.6914 40.9651C65.3867 40.8655 65.1455 40.7678 64.9678 40.6721C64.4834 40.4104 64.2412 40.0579 64.2412 39.6145C64.2412 39.384 64.3057 39.179 64.4346 38.9993C64.5654 38.8176 64.752 38.676 64.9941 38.5745C65.2383 38.4729 65.5117 38.4221 65.8145 38.4221C66.1191 38.4221 66.3906 38.4778 66.6289 38.5891C66.8672 38.6985 67.0518 38.8538 67.1826 39.0549C67.3154 39.2561 67.3818 39.4846 67.3818 39.7405H66.5029C66.5029 39.5452 66.4414 39.3938 66.3184 39.2864C66.1953 39.177 66.0225 39.1223 65.7998 39.1223C65.585 39.1223 65.418 39.1682 65.2988 39.26C65.1797 39.3499 65.1201 39.469 65.1201 39.6174C65.1201 39.7561 65.1895 39.8723 65.3281 39.9661C65.4688 40.0598 65.6748 40.1477 65.9463 40.2297C66.4463 40.3801 66.8105 40.5667 67.0391 40.7893C67.2676 41.012 67.3818 41.2893 67.3818 41.6213C67.3818 41.9905 67.2422 42.2805 66.9629 42.4915C66.6836 42.7004 66.3076 42.8049 65.835 42.8049C65.5068 42.8049 65.208 42.7454 64.9385 42.6262C64.6689 42.5051 64.4629 42.3401 64.3203 42.1311C64.1797 41.9221 64.1094 41.6799 64.1094 41.4045H64.9912C64.9912 41.8752 65.2725 42.1106 65.835 42.1106C66.0439 42.1106 66.207 42.0686 66.3242 41.9846C66.4414 41.8987 66.5 41.7795 66.5 41.6272Z" fill="#AFB1B8"/>
</svg>
