<svg width="90" height="55" viewBox="0 0 90 55" fill="none" xmlns="http://www.w3.org/2000/svg">
<path d="M45.3536 25.7057C44.9364 24.9711 44.7368 24.103 44.7842 23.2292V19.6387C44.7842 18.5381 44.9729 17.7016 45.3504 17.1294C45.7279 16.5571 46.3763 16.2722 47.2955 16.2747C48.1592 16.2747 48.7724 16.5182 49.1349 17.0052C49.5304 17.6266 49.7228 18.3864 49.6788 19.1529V19.9967H48.1336V19.142C48.1391 18.8622 48.1241 18.5824 48.0888 18.3055C48.0666 18.1162 47.9888 17.941 47.8681 17.8088C47.7094 17.6662 47.5095 17.597 47.3083 17.6152C47.0966 17.5971 46.8866 17.6701 46.7196 17.8197C46.585 17.9663 46.4953 18.1584 46.4637 18.3676C46.4194 18.6607 46.399 18.9578 46.4029 19.2552V23.6127C46.3785 24.0331 46.4467 24.4538 46.6013 24.8363C46.6781 24.9658 46.7848 25.0684 46.9096 25.1329C47.0344 25.1973 47.1724 25.2211 47.3083 25.2016C47.5062 25.2202 47.7026 25.1494 47.8553 25.0044C47.9812 24.8617 48.0622 24.6755 48.0856 24.4747C48.1217 24.1856 48.1378 23.8937 48.1336 23.6018V22.7178H49.6788V23.5251C49.7221 24.324 49.5344 25.1171 49.1445 25.7824C48.7894 26.3156 48.1848 26.5823 47.2955 26.5823C46.4061 26.5823 45.7343 26.2974 45.3536 25.7057Z" fill="#AFB1B8"/>
<path d="M51.7871 25.7422C51.3968 25.1833 51.2017 24.3688 51.2017 23.2913V19.5145C51.2017 18.448 51.3968 17.6407 51.7871 17.0929C52.1774 16.545 52.83 16.2722 53.7449 16.2747C54.6534 16.2747 55.3028 16.5474 55.6931 17.0929C56.0834 17.6407 56.2817 18.448 56.2817 19.5145V23.2913C56.2817 24.3579 56.0834 25.176 55.6867 25.7385C55.29 26.301 54.6438 26.5823 53.7449 26.5823C52.846 26.5823 52.1806 26.2974 51.7871 25.7422ZM54.4647 24.8363C54.6045 24.4863 54.6681 24.1028 54.6502 23.7186V19.0945C54.6682 18.7177 54.6056 18.3417 54.4679 17.9987C54.3895 17.8665 54.2801 17.7622 54.1523 17.6976C54.0245 17.633 53.8833 17.6108 53.7449 17.6334C53.6061 17.6114 53.4646 17.6338 53.3364 17.6983C53.2081 17.7629 53.0981 17.8669 53.0187 17.9987C52.878 18.3407 52.8143 18.7173 52.8332 19.0945V23.7406C52.8137 24.1249 52.8775 24.5087 53.0187 24.8583C53.1088 24.9761 53.2199 25.0705 53.3446 25.1352C53.4693 25.1999 53.6047 25.2334 53.7417 25.2334C53.8787 25.2334 54.0141 25.1999 54.1388 25.1352C54.2635 25.0705 54.3746 24.9761 54.4647 24.8583V24.8363Z" fill="#AFB1B8"/>
<path d="M58.1401 16.3848H59.8036L61.0544 23.3533L62.334 16.3848H63.9527L64.1158 26.4431H62.9194L62.7915 19.4527L61.5566 26.4431H60.5969L59.3173 19.4271L59.199 26.4431H57.9897L58.1401 16.3848Z" fill="#AFB1B8"/>
<path d="M65.9808 16.3848H68.5726C70.0658 16.3848 70.8124 17.3368 70.8124 19.2408C70.8124 21.0645 70.0263 21.9752 68.4542 21.9727H67.5711V26.4431H65.9712L65.9808 16.3848ZM68.195 20.6835C68.3531 20.7064 68.5136 20.6898 68.6655 20.635C68.8175 20.5801 68.9571 20.4882 69.0749 20.3657C69.2584 20.026 69.3393 19.6271 69.3053 19.2299C69.3137 18.923 69.2879 18.6162 69.2285 18.3168C69.2057 18.2168 69.1656 18.123 69.1107 18.0408C69.0558 17.9587 68.987 17.8899 68.9085 17.8384C68.6864 17.7168 68.4409 17.6615 68.195 17.6777H67.5743V20.6835H68.195Z" fill="#AFB1B8"/>
<path d="M73.1185 16.3848H74.8368L76.5999 26.4431H75.1088L74.76 24.1239H73.2273L72.8689 26.4431H71.3555L73.1185 16.3848ZM74.5872 22.9589L73.9889 18.7368L73.3905 22.9589H74.5872Z" fill="#AFB1B8"/>
<path d="M78.0222 16.3848H79.1421L81.2859 22.1225V16.3848H82.6138V26.4431H81.5483L79.3917 20.4534V26.4431H78.019L78.0222 16.3848Z" fill="#AFB1B8"/>
<path d="M85.7223 22.6081L83.9404 16.3989H85.4408L86.5284 20.3874L87.5489 16.3989H89.0172L87.2578 22.6081V26.4431H85.7223V22.6081Z" fill="#AFB1B8"/>
<path d="M47.8242 30.8408V31.3668H46.5187V35.4539H45.9716V31.3668H44.6597V30.8408H47.8242Z" fill="#AFB1B8"/>
<path d="M51.9154 35.4542H51.493C51.4501 35.4572 51.4078 35.4415 51.3746 35.4103C51.3427 35.3836 51.3182 35.3468 51.3042 35.3044L50.9267 34.2087H49.1156L48.738 35.3044C48.7273 35.3502 48.7076 35.3927 48.6804 35.4286C48.6469 35.4592 48.6048 35.4748 48.562 35.4724H48.1396L49.7395 30.8596H50.2963L51.9154 35.4542ZM49.266 33.7413H50.7763L50.1363 31.864C50.0891 31.722 50.0496 31.5769 50.0179 31.4294C49.9955 31.517 49.9763 31.601 49.9571 31.6741L49.8995 31.8676L49.266 33.7413Z" fill="#AFB1B8"/>
<path d="M54.6729 35.0012C54.7731 35.0072 54.8735 35.0072 54.9737 35.0012C55.0602 34.991 55.1458 34.9727 55.2297 34.9464C55.3081 34.9244 55.385 34.8964 55.46 34.8624C55.5304 34.8295 55.6008 34.7893 55.6744 34.7491V33.7117H55.0345C55.0187 33.7127 55.0028 33.71 54.9879 33.7037C54.9731 33.6974 54.9595 33.6877 54.9481 33.6752C54.9376 33.6648 54.9293 33.6519 54.9237 33.6373C54.9182 33.6228 54.9156 33.607 54.9161 33.5911V33.2368H56.1576V35.0048C56.0563 35.0876 55.9493 35.1609 55.8376 35.224C55.7235 35.2883 55.6047 35.3408 55.4824 35.3811C55.3516 35.425 55.2178 35.4568 55.0825 35.4761C54.9274 35.4957 54.7714 35.5055 54.6153 35.5053C54.3394 35.5079 54.0655 35.4496 53.809 35.3336C53.5694 35.2236 53.3518 35.0596 53.169 34.8514C52.9909 34.6411 52.8506 34.3928 52.7563 34.1208C52.6554 33.8151 52.6055 33.4905 52.6091 33.1638C52.6057 32.835 52.6545 32.5083 52.7531 32.1994C52.8451 31.926 52.9856 31.6773 53.1658 31.4688C53.3484 31.2613 53.5662 31.0984 53.8058 30.9903C54.0798 30.8726 54.3706 30.8144 54.6633 30.8186C54.8123 30.8184 54.961 30.8318 55.1081 30.8588C55.2381 30.8829 55.3657 30.9221 55.4888 30.9756C55.6008 31.0237 55.708 31.0849 55.8088 31.1583C55.9069 31.2304 56 31.311 56.0872 31.3994L55.9336 31.6843C55.9216 31.7103 55.9037 31.7322 55.8817 31.7476C55.8598 31.763 55.8346 31.7715 55.8088 31.772C55.7734 31.7707 55.739 31.758 55.7096 31.7355C55.6616 31.7062 55.6104 31.6697 55.5528 31.6259C55.4848 31.5772 55.4131 31.5356 55.3385 31.5017C55.2431 31.458 55.1446 31.4238 55.0441 31.3994C54.9101 31.3712 54.774 31.3578 54.6377 31.3592C54.4266 31.3565 54.217 31.3999 54.0202 31.4871C53.8421 31.5686 53.6816 31.6932 53.5498 31.8524C53.4172 32.0182 53.3159 32.2134 53.2522 32.4259C53.1093 32.9255 53.1093 33.4641 53.2522 33.9637C53.3222 34.1807 53.4312 34.3785 53.5722 34.5446C53.7034 34.7028 53.8627 34.8274 54.0394 34.9099C54.2428 34.9896 54.4585 35.0207 54.6729 35.0012Z" fill="#AFB1B8"/>
<path d="M59.7717 34.9279H61.5188V35.4539H59.2373V30.8408H59.7845L59.7717 34.9279Z" fill="#AFB1B8"/>
<path d="M63.3367 35.4539H62.7886V30.8408H63.3367V35.4539Z" fill="#AFB1B8"/>
<path d="M65.37 30.8627C65.4025 30.8839 65.4308 30.9125 65.4531 30.9467L67.7921 34.4241C67.7889 34.3694 67.7889 34.3145 67.7921 34.2598C67.7921 34.2086 67.7921 34.1575 67.7921 34.11V30.8225H68.2688V35.4542H67.9936C67.9529 35.458 67.912 35.4492 67.8752 35.4286C67.842 35.4057 67.8128 35.376 67.7889 35.341L65.4531 31.8672C65.4531 31.922 65.4531 31.9731 65.4531 32.0243C65.4531 32.0754 65.4531 32.1229 65.4531 32.1667V35.4542H64.9956V30.8408H65.2804C65.3112 30.8408 65.3418 30.8483 65.37 30.8627Z" fill="#AFB1B8"/>
<path d="M72.2965 30.8408V31.3485H70.3576V32.8716H71.9286V33.361H70.3576V34.9352H72.2965V35.4429H69.7944V30.8408H72.2965Z" fill="#AFB1B8"/>
<path d="M14.9725 2.35217L39.2628 10.2268V37.8209L14.9725 29.9499V2.35217ZM13.4146 0V31.2904L40.8175 40.1768V8.89002L13.4146 0Z" fill="#AFB1B8"/>
<path d="M28.1013 54.7024L0.695312 45.8086V14.5212L28.1013 23.4114V54.7024Z" fill="#AFB1B8"/>
<path d="M13.8689 1.99784L37.8424 9.77371L27.6471 21.4174L3.67041 13.6379L13.8689 1.99784ZM13.4146 0L0.695312 14.5218L28.1014 23.4116L40.8175 8.88984L13.4146 0Z" fill="#AFB1B8"/>
<path d="M29.6436 52.9421L40.8176 40.1808L29.6436 36.554V52.9421Z" fill="#AFB1B8"/>
</svg>
