<svg width="42" height="52" viewBox="0 0 42 52" fill="none" xmlns="http://www.w3.org/2000/svg">
<path d="M7.08734 50.3137C7.10233 50.3142 7.11709 50.3181 7.13076 50.3252C7.14442 50.3323 7.15672 50.3424 7.16694 50.355L7.37238 50.6147C7.21292 50.8248 7.01583 50.9929 6.7946 51.1074C6.53553 51.2323 6.25632 51.2927 5.97544 51.2844C5.7115 51.2907 5.44927 51.2344 5.20507 51.1192C4.98479 51.0134 4.78687 50.8544 4.62472 50.653C4.45923 50.4442 4.33176 50.1994 4.24981 49.9331C4.16006 49.6363 4.11575 49.3238 4.11885 49.0096C4.1152 48.6934 4.16311 48.3792 4.26008 48.0832C4.34979 47.8152 4.4851 47.5704 4.6581 47.3633C4.83345 47.1601 5.04321 47.0004 5.2744 46.8941C5.52732 46.7815 5.79664 46.7254 6.06788 46.7289C6.31983 46.7219 6.57045 46.773 6.80487 46.8794C7.00825 46.9808 7.19499 47.1215 7.35697 47.2954L7.18492 47.5727C7.17303 47.5923 7.15826 47.6092 7.14126 47.6229C7.12096 47.6389 7.09643 47.6462 7.07193 47.6436C7.04528 47.6414 7.01959 47.6313 6.99746 47.614L6.90502 47.5403L6.77662 47.4459C6.7212 47.4108 6.66371 47.3803 6.60457 47.3544C6.52841 47.3231 6.45029 47.2984 6.37089 47.2806C6.27012 47.2593 6.16777 47.2494 6.06531 47.2511C5.87 47.2483 5.67616 47.2905 5.49524 47.3751C5.32651 47.4534 5.17421 47.5721 5.04843 47.7232C4.92038 47.8839 4.82171 48.0726 4.75825 48.2779C4.68593 48.5128 4.65029 48.7605 4.65297 49.0096C4.64988 49.2626 4.68552 49.5143 4.75825 49.7531C4.82091 49.9567 4.91776 50.1442 5.04329 50.3049C5.1609 50.4547 5.30668 50.5717 5.46956 50.6471C5.63718 50.727 5.8171 50.7671 5.99855 50.7651C6.10336 50.767 6.20813 50.7591 6.31183 50.7415C6.48116 50.7178 6.6436 50.6502 6.78689 50.5438C6.85877 50.4894 6.92662 50.4282 6.98976 50.3609C7.01616 50.332 7.05088 50.3152 7.08734 50.3137Z" fill="#AFB1B8"/>
<path d="M13.0177 49.0092C13.0209 49.3222 12.9739 49.6332 12.879 49.9267C12.7953 50.1929 12.6635 50.4357 12.4922 50.6391C12.3209 50.8425 12.1141 51.0019 11.8852 51.1067C11.3825 51.3271 10.8267 51.3271 10.3239 51.1067C10.0966 51.0002 9.89107 50.8405 9.72047 50.6377C9.54929 50.4305 9.41649 50.1857 9.33015 49.9178C9.14516 49.3236 9.14516 48.6741 9.33015 48.0799C9.41775 47.8119 9.55037 47.5663 9.72047 47.3571C9.89252 47.1607 10.0979 47.007 10.3239 46.9057C10.8261 46.6815 11.3831 46.6815 11.8852 46.9057C12.1134 47.0122 12.3197 47.1719 12.4913 47.3748C12.6603 47.5799 12.7922 47.8216 12.879 48.0858C12.9742 48.3812 13.0212 48.6942 13.0177 49.0092ZM12.4784 49.0092C12.4825 48.7588 12.4495 48.5094 12.3809 48.2717C12.3233 48.068 12.2298 47.8802 12.1061 47.72C11.9857 47.5684 11.8374 47.4495 11.6721 47.3719C11.3068 47.2106 10.9024 47.2106 10.5371 47.3719C10.3717 47.4495 10.2235 47.5684 10.1031 47.72C9.97769 47.8792 9.88316 48.0673 9.82576 48.2717C9.6951 48.7519 9.6951 49.2665 9.82576 49.7467C9.88372 49.9508 9.97819 50.1387 10.1031 50.2984C10.2236 50.4491 10.3719 50.567 10.5371 50.6436C10.903 50.8008 11.3061 50.8008 11.6721 50.6436C11.8373 50.567 11.9855 50.4491 12.1061 50.2984C12.2292 50.1378 12.3227 49.9501 12.3809 49.7467C12.4498 49.5091 12.4828 49.2596 12.4784 49.0092Z" fill="#AFB1B8"/>
<path d="M17.0636 49.7825L17.1175 49.9477C17.1381 49.8887 17.1561 49.8356 17.1766 49.7825C17.1962 49.727 17.2185 49.6728 17.2434 49.6202L18.5556 46.8797C18.5813 46.8325 18.6044 46.803 18.6301 46.7942C18.665 46.782 18.7015 46.777 18.7379 46.7794H19.1257V51.2368H18.666V47.9594C18.666 47.9181 18.666 47.8709 18.666 47.8208C18.6635 47.7697 18.6635 47.7185 18.666 47.6674L17.3461 50.4462C17.3293 50.4878 17.3025 50.5231 17.2688 50.5476C17.2351 50.5722 17.196 50.5851 17.1561 50.5849H17.0816C17.0416 50.5855 17.0023 50.5727 16.9686 50.5481C16.9348 50.5235 16.9081 50.4881 16.8916 50.4462L15.5331 47.6497C15.5331 47.7028 15.5331 47.7559 15.5331 47.809C15.5331 47.8621 15.5331 47.9093 15.5331 47.9506V51.228H15.0889V46.7794H15.4766C15.5131 46.777 15.5496 46.782 15.5845 46.7942C15.6163 46.8123 15.6417 46.8425 15.6564 46.8797L16.9968 49.6232C17.0232 49.6739 17.0455 49.7272 17.0636 49.7825Z" fill="#AFB1B8"/>
<path d="M22.0004 49.5609V51.2305H21.4868V46.7793H22.6321C22.8483 46.7745 23.0639 46.8073 23.2715 46.8766C23.4377 46.9307 23.5919 47.0253 23.7235 47.1539C23.8375 47.2744 23.9255 47.4239 23.9802 47.5905C24.0409 47.772 24.0705 47.9653 24.0675 48.1598C24.0698 48.355 24.0375 48.5487 23.9725 48.7291C23.9108 48.8998 23.8159 49.0522 23.6952 49.1745C23.5635 49.3084 23.4086 49.409 23.2407 49.4695C23.0408 49.5428 22.8317 49.5777 22.6218 49.5727L22.0004 49.5609ZM22.0004 49.083H22.6218C22.7568 49.085 22.8912 49.0621 23.0198 49.0152C23.126 48.9742 23.2238 48.9089 23.3075 48.8235C23.3846 48.7418 23.4444 48.6409 23.4821 48.5285C23.5241 48.4096 23.5451 48.2822 23.5437 48.1539C23.5497 48.0301 23.5321 47.9064 23.4922 47.7912C23.4523 47.6761 23.391 47.5724 23.3126 47.4872C23.1164 47.3112 22.87 47.226 22.6218 47.2483H22.0004V49.083Z" fill="#AFB1B8"/>
<path d="M28.9023 51.2367H28.4966C28.4558 51.2385 28.4159 51.2239 28.3836 51.1954C28.3544 51.1676 28.3315 51.1322 28.3168 51.0921L27.9676 50.0153H26.2137L25.8516 51.0921C25.8383 51.1315 25.8161 51.1661 25.7874 51.1924C25.7548 51.2226 25.7137 51.2383 25.6718 51.2367H25.2661L26.8069 46.7788H27.341L28.9023 51.2367ZM26.36 49.5816H27.8083L27.1972 47.7671C27.1505 47.6307 27.1119 47.4907 27.0816 47.3482L27.0226 47.5813C27.0046 47.6521 26.984 47.717 26.9661 47.7701L26.36 49.5816Z" fill="#AFB1B8"/>
<path d="M31.12 46.7996C31.1507 46.8189 31.1771 46.8462 31.1971 46.8792L33.444 50.2395C33.444 50.1864 33.444 50.1333 33.444 50.0832C33.444 50.033 33.444 49.9829 33.444 49.9357V46.7789H33.9036V51.2367H33.6468C33.6104 51.238 33.5742 51.2289 33.5416 51.2101C33.5098 51.1889 33.4819 51.1609 33.4594 51.1275L31.215 47.7702C31.2175 47.8213 31.2175 47.8725 31.215 47.9236C31.215 47.9737 31.215 48.018 31.215 48.0593V51.2367H30.7554V46.7789H31.0276C31.0593 46.7779 31.0909 46.7849 31.12 46.7996Z" fill="#AFB1B8"/>
<path d="M37.6876 49.4638V51.2339H37.174V49.4638L35.7539 46.7791H36.2136C36.2532 46.7764 36.2923 46.79 36.324 46.8174C36.352 46.8461 36.3754 46.88 36.3933 46.9177L37.2819 48.6495C37.3178 48.7233 37.3486 48.7911 37.3743 48.856C37.4 48.9209 37.4205 48.9829 37.4385 49.0448L37.5053 48.8531C37.5302 48.783 37.5594 48.7149 37.5926 48.6495L38.4683 46.9059C38.4867 46.8711 38.5092 46.8394 38.5351 46.8115C38.5655 46.781 38.6051 46.7651 38.6455 46.7673H39.1103L37.6876 49.4638Z" fill="#AFB1B8"/>
<path d="M16.8091 39.2983C17.0324 39.3307 17.2584 39.3573 17.4869 39.3809C20.9511 37.6002 23.8817 34.6858 25.9124 31.0018C27.9431 27.3179 28.9837 23.028 28.9043 18.6683L25.0865 14.2815C25.8628 18.9232 25.4996 23.7216 24.0378 28.1398C22.5759 32.5579 20.073 36.4215 16.8091 39.2983Z" fill="#AFB1B8"/>
<path d="M15.4458 39.0943L15.5485 39.1179C19.0363 36.2514 21.6955 32.2484 23.1821 27.6268C24.6687 23.0051 24.9145 17.9772 23.8875 13.1934L18.4497 6.94531C20.6491 12.0811 21.5344 17.8288 21.0027 23.52C20.4709 29.2112 18.5439 34.612 15.4458 39.0943Z" fill="#AFB1B8"/>
<path d="M33.8875 23.8193C32.9637 28.6097 30.72 32.9299 27.4895 36.1387C26.5461 37.081 25.5284 37.9205 24.4497 38.6462C27.0802 37.7578 29.498 36.1872 31.5167 34.0553C33.5354 31.9235 35.1011 29.2875 36.093 26.3505L33.8875 23.8193Z" fill="#AFB1B8"/>
<path d="M33.0226 23.114L29.8827 19.5061C29.8227 23.6195 28.8049 27.6394 26.9353 31.148C25.0656 34.6566 22.4122 37.5257 19.251 39.4573H19.2664C19.9709 39.457 20.6747 39.4087 21.3742 39.3127C24.3286 37.9272 26.9385 35.7228 28.971 32.8963C31.0036 30.0697 32.3955 26.709 33.0226 23.114Z" fill="#AFB1B8"/>
<path d="M15.9003 4.31009L12.1544 0C8.80572 1.48689 5.92571 4.10078 3.89131 7.49957C1.85691 10.8984 0.762891 14.9237 0.752441 19.0488H0.752441C0.764992 23.6068 2.10016 28.0299 4.54663 31.6179C6.99309 35.2059 10.4111 37.7539 14.2597 38.8586C17.6953 34.049 19.7068 28.106 20.0018 21.8929C20.2968 15.6799 18.8601 9.52067 15.9003 4.31009Z" fill="#AFB1B8"/>
<path d="M41.6771 22.4503C41.6635 17.0425 39.7879 11.8606 36.4599 8.03667C33.1319 4.21273 28.6221 2.05757 23.9157 2.042C21.7409 2.03942 19.5845 2.50054 17.5562 3.40197L40.4909 29.7546C41.2762 27.4252 41.6784 24.9485 41.6771 22.4503Z" fill="#AFB1B8"/>
</svg>
