<svg aria-hidden="true" style="position:absolute;width:0;height:0" xmlns="http://www.w3.org/2000/svg" overflow="hidden"><defs><symbol id="icon-close1" viewBox="0 0 32 32"><path d="M23.733 10.304L22.229 8.8l-5.963 5.963L10.303 8.8l-1.504 1.504 5.963 5.963-5.963 5.963 1.504 1.504 5.963-5.963 5.963 5.963 1.504-1.504-5.963-5.963 5.963-5.963z"/></symbol><symbol id="icon-menu" viewBox="0 0 32 32"><path d="M6.4 11.733V9.6h19.2v2.133H6.4zm0 5.334h19.2v-2.133H6.4v2.133zm0 5.333h19.2v-2.133H6.4V22.4z"/></symbol><symbol id="icon-close" viewBox="0 0 32 32"><path d="M26.667 7.303l-1.97-1.97-7.808 7.808-7.808-7.808-1.97 1.97 7.808 7.808-7.808 7.808 1.97 1.97 7.808-7.808 7.808 7.808 1.97-1.97-7.808-7.808 7.808-7.808z"/></symbol><symbol id="icon-icon-send" viewBox="0 0 32 32"><path fill="var(--color1, #fff)" d="M32 0L0 18l10.227 3.787L26 7 14.003 23.187l.009.003-.012-.003V32l5.735-6.691L27.002 28l4.999-28z"/></symbol><symbol id="icon-email" viewBox="0 0 32 32"><path d="M26.667 5.333H5.334c-1.467 0-2.652 1.2-2.652 2.667l-.014 16c0 1.467 1.2 2.667 2.667 2.667h21.333c1.467 0 2.667-1.2 2.667-2.667V8c0-1.467-1.2-2.667-2.667-2.667zm-.534 5.668l-9.426 5.892c-.201.126-.446.2-.708.2s-.506-.075-.713-.204l.006.003L5.866 11c-.336-.201-.557-.562-.557-.975 0-.625.507-1.132 1.132-1.132.233 0 .449.07.629.19l-.004-.003 8.933 5.586 8.933-5.588c.176-.118.392-.188.624-.188.625 0 1.132.507 1.132 1.132 0 .413-.221.775-.552.972l-.005.003z"/></symbol><symbol id="icon-icon-check" viewBox="0 0 34 32"><path fill="var(--color1, #fff)" stroke="var(--color1, #fff)" stroke-width=".4267" d="M8.442 16.538l-.147-.141-.147.139-2.057 1.95.162.156 7.605 7.253.147-.141 16.171-15.426-.162-.154-2.029-1.935-.147.141-13.98 13.325-5.417-5.167z"/></symbol><symbol id="icon-person" viewBox="0 0 32 32"><path d="M16 16c2.946 0 5.333-2.388 5.333-5.333S18.945 5.334 16 5.334c-2.946 0-5.333 2.388-5.333 5.333S13.055 16 16 16zm0 2.667c-3.561 0-10.667 1.787-10.667 5.333v1.333c0 .732.599 1.333 1.333 1.333h18.667c.732 0 1.333-.601 1.333-1.333V24c0-3.547-7.108-5.333-10.667-5.333z"/></symbol><symbol id="icon-phone" viewBox="0 0 32 32"><path d="M24.882 19.774l-3.268-.373c-.09-.011-.194-.018-.3-.018-.707 0-1.347.287-1.81.75l-2.368 2.368c-3.669-1.894-6.585-4.81-8.427-8.372l-.051-.108 2.382-2.377c.464-.463.752-1.104.752-1.812 0-.105-.006-.209-.019-.31l.001.012-.373-3.243c-.155-1.287-1.24-2.276-2.557-2.276h-2.23c-1.454 0-2.663 1.209-2.574 2.661.683 10.987 9.468 19.762 20.444 20.444 1.452.089 2.663-1.12 2.663-2.574V22.32v-.012c0-1.308-.985-2.386-2.253-2.532l-.012-.001z"/></symbol><symbol id="icon-antenna" viewBox="0 0 32 32"><path fill="var(--color2, #212121)" d="M30.773 22.098l-8.443-8.505.937-4.616c.225.09.485.144.758.146h.033c1.192 0 2.159-.967 2.159-2.159s-.967-2.159-2.159-2.159c-1.192 0-2.159.967-2.159 2.159 0 .259.046.508.13.739l-.005-.015-4.96.606L8.973.161c-.096-.098-.229-.159-.376-.16-.14.001-.274.057-.373.155L6.712 1.66c-.096.097-.156.23-.156.377s.06.281.156.377l.814.825C6.383 5.301 5.71 7.761 5.71 10.378c0 4.106 1.656 7.824 4.336 10.525l-.001-.001c.043.041.092.074.146.097-.032.164-.051.353-.052.546v6.188h-6.4c-1.472.001-2.666 1.194-2.667 2.666v1.067c0 .295.239.534.534.534H26.14c.294 0 .533-.239.533-.534v-1.067c-.002-1.472-1.195-2.665-2.666-2.666h-6.4v-2.742c1.003.21 2.024.317 3.049.32 2.58-.003 5.005-.663 7.117-1.822l-.077.039.818.823c.099.101.235.159.376.16.14-.001.274-.057.373-.155l1.512-1.504c.096-.097.156-.23.156-.377s-.06-.281-.156-.377zM23.28 6.233c.193-.192.459-.31.752-.31.589 0 1.067.478 1.067 1.066s-.477 1.066-1.067 1.066h-.004c-.587-.003-1.061-.479-1.061-1.066 0-.295.12-.563.314-.756h-.002zm-1.256 3.504l-.598 2.946-1.175-1.183 1.774-1.763zm-.605-.902l-1.92 1.909-1.486-1.493 3.406-.416zM24.004 28.8c.884 0 1.6.716 1.6 1.6v.534H2.138V30.4c0-.884.716-1.6 1.6-1.6h20.267zm-7.466-2.134v1.067h-5.334v-1.067h5.334zM11.204 25.6v-4.053c0-1.294 1.196-2.346 2.667-2.346s2.667 1.053 2.667 2.346V25.6h-5.334zm6.4-1.696v-2.357c0-1.882-1.675-3.413-3.733-3.413h-.058c-1.353 0-2.54.707-3.213 1.771l-.009.016c-2.36-2.482-3.812-5.846-3.812-9.55 0-2.314.567-4.496 1.569-6.414l-.036.077 18.602 18.709c-1.823.947-3.979 1.502-6.266 1.502-1.079 0-2.128-.124-3.136-.357l.093.018zm11.289-.684L7.836 2.039l.754-.752 7.935 7.98c.004 0 .006.007.01.01l13.114 13.191-.757.752z"/><path fill="var(--color3, #2196f3)" d="M13.876 20.267h-.007c-.884 0-1.6.716-1.6 1.6s.715 1.599 1.597 1.6h.007c.884 0 1.6-.716 1.6-1.6s-.715-1.599-1.598-1.6zm.373 1.978c-.096.096-.229.155-.376.155-.294 0-.533-.239-.533-.533s.237-.532.531-.533c.293.001.531.239.531.533 0 .148-.06.282-.157.378h.005z"/></symbol><symbol id="icon-astronaut" viewBox="0 0 32 32"><path fill="var(--color3, #2196f3)" d="M31.974 4.524c-.064-.191-.227-.332-.427-.362h-.003l-1.91-.278-.855-1.731c-.179-.365-.777-.365-.956 0l-.855 1.731-1.911.278c-.26.039-.457.26-.457.528 0 .15.062.285.161.382l1.383 1.348-.326 1.903c-.034.2.048.402.212.522.087.064.195.102.313.102.091 0 .177-.023.252-.064l-.003.001 1.708-.899 1.709.899c.072.038.157.061.247.061.295 0 .534-.239.534-.534 0-.031-.003-.062-.008-.092v.003l-.326-1.903 1.383-1.348c.099-.097.16-.232.16-.382 0-.059-.01-.116-.027-.169l.001.004zm-2.463 1.327c-.125.122-.183.299-.153.472l.191 1.114-1.001-.526c-.072-.039-.158-.061-.248-.061s-.176.023-.251.063l.003-.001-1.001.526.192-1.114c.005-.027.008-.058.008-.09 0-.15-.062-.285-.161-.382l-.811-.789 1.119-.163c.174-.025.324-.134.402-.292l.5-1.013.501 1.013c.078.158.228.267.402.292l1.119.162-.809.79zm-3.377 14.671h-1.067v1.067h1.067v-1.067zm0 2.134h-1.067v1.066h1.067v-1.066zm1.066-1.067h-1.067v1.067H27.2v-1.067zM25.067 21.589H24v1.067h1.067v-1.067zm-2.667 4.8h-1.067v1.067H22.4v-1.067zm0 2.134h-1.067v1.067H22.4v-1.067zm1.066-1.067h-1.067v1.067h1.067v-1.067zm-2.132 0h-1.067v1.067h1.067v-1.067zM16 24.256h-1.067v1.067H16v-1.067zm0 2.133h-1.067v1.067H16v-1.067zm1.067-1.067H16v1.067h1.067v-1.067zm-2.134 0h-1.066v1.067h1.066v-1.067zm-9.066-19.2H4.8v1.066h1.067V6.122zm0 2.134H4.8v1.066h1.067V8.256zm1.066-1.067H5.866v1.067h1.066V7.189zm-2.133 0H3.733v1.067H4.8V7.189z"/><path fill="var(--color2, #212121)" d="M24.715 14.16c-.28-.376-.698-.636-1.179-.703l-.009-.001c-.076-.012-.164-.018-.254-.018-.411 0-.789.139-1.09.373l.004-.003-1.253.96-1.898 1.417-1.358-.541c2.421-1.086 4.113-3.508 4.113-6.32 0-3.823-3.122-6.934-6.961-6.934S7.869 5.5 7.869 9.324c0 1.386.415 2.674 1.12 3.759l-2.768-.024c-.009 0-.016.005-.023.005-.056.003-.11.014-.159.033l.004-.001c-.013.005-.026.007-.038.013-.006.003-.013.003-.019.006l-3.233 1.596s-.001 0-.001.001l-1.893.91c-.024.011-.045.023-.064.036l.001-.001c-.482.324-.795.867-.795 1.483 0 .297.073.577.201.823l-.005-.01c.22.424.592.742 1.043.885l.013.003c.161.053.345.083.537.083.308 0 .598-.078.851-.216l-.009.005 1.388-.738 2.264-1.169 1.357-.008-5.442 5.415c0 .001-.001.001-.001.001L.859 23.547c-.303.299-.49.714-.49 1.173v.005c0 .445.174.863.49 1.178.301.3.717.485 1.176.485h.004c.428 0 .854-.162 1.18-.485l1.314-1.309 1.741-1.3.901.897-3.102 3.088c-.303.299-.491.714-.491 1.173v.004c0 .445.174.864.49 1.179.302.3.717.485 1.176.485h.003c.427 0 .855-.162 1.18-.485l4.488-4.472c.007-.006.016-.009.022-.016l5.166-5.658 3.471.494c.025.004.05.006.075.006.065 0 .127-.016.187-.038.018-.006.033-.015.05-.023.019-.01.039-.015.058-.027l3.213-2.133c.012-.008.018-.021.029-.03.013-.01.029-.014.041-.026l1.271-1.191c.348-.326.564-.787.564-1.3 0-.4-.132-.769-.355-1.067l.003.005zM2.13 17.77c-.173.093-.37.112-.558.052-.294-.093-.504-.364-.504-.683 0-.236.114-.445.29-.575l.002-.001 1.314-.632.316.924.133.389-.992.527zm3.497-1.828l-1.548.8-.255-.746-.184-.537 2.027-1.001-.04 1.484zm15.1-6.62c0 .918-.219 1.785-.599 2.56l-4.181-1.899c-.044-.575-.342-1.072-.782-1.384l-.006-.004 1.463-4.861c2.378.756 4.105 2.974 4.105 5.588zm-11.789 0c0-3.235 2.644-5.867 5.894-5.867.253 0 .5.022.745.053l-1.432 4.753c-.019 0-.037-.006-.057-.006h-.001c-1.032 0-1.869.835-1.872 1.867.003 1.031.84 1.867 1.872 1.867h.001c.695 0 1.295-.383 1.618-.944l3.863 1.755c-1.075 1.446-2.795 2.389-4.737 2.389-3.25 0-5.894-2.632-5.894-5.867zm5.957.8c0 .441-.362.8-.806.8h-.001c-.443 0-.802-.358-.804-.8 0-.441.361-.8.806-.8s.806.359.806.8zM2.464 25.146c-.11.109-.261.176-.428.176s-.317-.067-.427-.175c-.109-.108-.176-.257-.176-.422s.067-.314.176-.422l.962-.959.852.848-.959.955zm3.214 3.734c-.11.109-.261.176-.428.176s-.317-.067-.427-.175c-.109-.108-.176-.257-.176-.422s.067-.314.176-.422l.963-.959.852.848-.96.955zm3.482-3.469l-.001.001-1.765 1.76-.852-.848 1.765-1.757c.04-.04.065-.088.09-.136.007-.014.02-.026.026-.04.016-.041.019-.085.026-.128.003-.025.014-.048.014-.073 0-.036-.013-.07-.02-.106-.006-.032-.006-.064-.019-.096-.025-.053-.055-.098-.092-.138-.01-.012-.014-.027-.025-.038h-.001s0-.001-.001-.002l-1.607-1.6c-.017-.017-.039-.024-.058-.038-.025-.021-.054-.04-.084-.057l-.003-.001c-.027-.012-.058-.023-.09-.031l-.003-.001c-.03-.009-.065-.017-.101-.02h-.002c-.007 0-.015-.001-.023-.001-.026 0-.051.002-.075.005h.003c-.036.005-.069.009-.104.021-.036.013-.068.028-.097.046l.002-.001c-.02.011-.042.015-.061.029l-1.773 1.324-.901-.897 2.399-2.386 4.361 4.289-.928.919zm6.819-7.017c-.015-.002-.03.004-.045.003-.008 0-.017-.001-.026-.001-.031 0-.062.003-.092.008h.003c-.07.011-.132.035-.187.07l.002-.001c-.031.019-.058.039-.083.062-.013.011-.028.016-.04.029l-4.698 5.146-4.328-4.256 2.833-2.818c.096-.097.156-.23.156-.377 0-.295-.239-.534-.534-.534h-.002l-2.219.013.028-1.607 3.104.027c1.264 1.297 3.027 2.101 4.978 2.101h.003c.438 0 .864-.046 1.28-.122.04.032.08.064.129.085l2.41.96.152.759.178.885-3.003-.427zm4.041.178l-.313-1.558 1.446-1.08.946 1.257-2.08 1.381zm3.754-2.831l-.838.785-.931-1.237.831-.637c.155-.119.351-.168.543-.143.193.027.364.128.48.284.088.117.141.265.141.426 0 .206-.087.391-.226.521z"/><path fill="var(--color2, #212121)" d="M13.602 18.544l-2.143-2.134c-.096-.096-.229-.155-.376-.155s-.28.059-.376.155l-2.143 2.133c-.097.097-.156.23-.156.378s.06.281.156.378l2.143 2.134c.096.096.229.156.376.156s.28-.059.376-.156l2.143-2.134c.097-.097.157-.23.157-.378s-.06-.281-.157-.378zm-2.519 1.759l-1.387-1.381 1.386-1.381 1.387 1.381-1.387 1.381zm6.081-15.232l-.258 1.036c.071.018 1.738.452 1.738 2.149h1.067c0-2.017-1.666-2.965-2.547-3.184zm2.547 4.251h-1.067v1.066h1.067V9.322z"/></symbol><symbol id="icon-clock" viewBox="0 0 32 32"><path fill="var(--color2, #212121)" d="M31.296 15.301C31.295 6.849 24.441-.002 15.988 0S.685 6.855.687 15.308c.002 6.788 4.422 12.543 10.541 14.545l.108.031c.061.019.123.029.187.029.12 0 .238-.032.342-.094.135-.08.236-.207.283-.357l3.865-12.25c1.054-.004 1.906-.859 1.906-1.913 0-1.056-.856-1.913-1.913-1.913-.303 0-.59.071-.845.196l.011-.005-5.106-5.107c-.114-.11-.271-.179-.443-.179-.352 0-.638.286-.638.638 0 .172.068.328.179.443l5.103 5.109c-.121.241-.191.525-.191.826 0 .602.283 1.137.723 1.48l.004.003-3.682 11.673C3.843 25.782.117 17.709 2.797 10.431S13.551-.573 20.829 2.108c7.278 2.681 11.004 10.754 8.323 18.032-1.345 3.581-4.003 6.406-7.374 7.938l-.088.036-.398-1.874c-.063-.291-.318-.506-.624-.506-.164 0-.313.062-.426.163l.001-.001-3.837 3.426c-.132.117-.214.287-.214.477 0 .283.185.524.441.606l.005.001 4.899 1.563c.058.02.126.031.196.031.352 0 .637-.285.637-.637 0-.047-.005-.093-.015-.138l.001.004-.391-1.839c5.528-2.374 9.329-7.772 9.329-14.057v-.034.002zm-15.304-.637c.352 0 .638.286.638.638s-.285.638-.638.638c-.352 0-.638-.286-.638-.638s.286-.638.638-.638zm2.1 14.864l2.184-1.948.603 2.84-2.787-.892z"/><path fill="var(--color3, #2196f3)" d="M15.354 3.185V4.46c0 .352.286.638.638.638s.638-.285.638-.638V3.185c0-.352-.285-.638-.638-.638s-.638.285-.638.638zM3.876 14.664c-.352 0-.638.286-.638.638s.285.638.638.638h1.275c.352 0 .638-.286.638-.638s-.285-.638-.638-.638H3.876zm24.232 1.275c.352 0 .638-.286.638-.638s-.285-.638-.638-.638h-1.275c-.352 0-.638.286-.638.638s.285.638.638.638h1.275z"/></symbol><symbol id="icon-diagram" viewBox="0 0 32 32"><path fill="var(--color3, #2196f3)" d="M14.926 14.965h1.066v4.798h-1.066v-4.798zm4.264 2.132h1.066v2.665H19.19v-2.665zm-8.529 1.599h1.066v1.066h-1.066v-1.066zm-3.198-.533h1.066v1.6H7.463v-1.6z"/><path fill="var(--color2, #212121)" d="M1.599 28.291h25.586c.883 0 1.599-.716 1.599-1.599V24.56c0-.883-.716-1.599-1.599-1.599h-.533V9.667l3.028-2.868c.207.104.452.166.711.166.888 0 1.608-.72 1.608-1.608s-.72-1.608-1.608-1.608c-.888 0-1.608.72-1.608 1.608 0 .247.056.481.155.69l-.004-.01-2.281 2.162v-1.23c0-.883-.716-1.599-1.599-1.599H3.731c-.883 0-1.599.716-1.599 1.599v15.992h-.533C.716 22.961 0 23.677 0 24.56v2.132c0 .883.716 1.599 1.599 1.599zM30.384 4.837c.294 0 .533.239.533.533s-.239.533-.533.533c-.294 0-.533-.239-.533-.533s.239-.533.533-.533zM3.198 6.969c0-.294.239-.533.533-.533h21.323c.294 0 .533.239.533.533v2.239l-1.066 1.013V8.036c0-.295-.239-.534-.534-.534H4.798c-.294 0-.534.239-.534.533v13.327c0 .294.239.533.534.533h19.189c.295 0 .534-.239.534-.533v-9.675l1.066-1.01V22.96H3.198V6.969zm4.798 6.93h-.005c-.883 0-1.599.716-1.599 1.599s.716 1.599 1.599 1.599c.432 0 .824-.172 1.112-.45l1.853.93c.215.107.476.057.636-.123l3.939-4.431 3.872 2.902c.208.155.498.139.686-.039l3.365-3.188v8.131H5.331V8.568h18.123v2.661l-3.771 3.572-3.904-2.927c-.088-.067-.2-.107-.32-.107-.158 0-.3.069-.398.178v.001l-3.993 4.493-1.493-.746c.01-.056.017-.123.02-.19V15.5c0-.883-.716-1.599-1.599-1.599zm.533 1.599c0 .294-.239.533-.533.533s-.533-.239-.533-.533c0-.294.239-.533.533-.533s.533.239.533.533zm3.198 8.528h5.33v.533c0 .294-.238.533-.533.533h-4.265c-.294 0-.533-.239-.533-.533v-.533zm-10.66.534c0-.294.238-.533.533-.533h9.062v.533c0 .883.716 1.599 1.599 1.599h4.265c.883 0 1.599-.716 1.599-1.599v-.533h9.062c.294 0 .533.239.533.533v2.132c0 .294-.239.533-.533.533H1.601c-.294 0-.533-.239-.533-.533V24.56z"/></symbol><symbol id="icon-envelope" viewBox="0 0 43 32"><path d="M38.667 0H4C1.795 0 0 1.675 0 3.733v22.405c0 2.059 1.795 3.733 4 3.733h34.667c2.205 0 4-1.675 4-3.733V3.733c0-2.059-1.795-3.733-4-3.733zm0 2.488c.181 0 .355.037.512.099L21.334 17.024 3.489 2.587c.152-.062.327-.098.512-.099h34.667zm0 24.893H4c-.736 0-1.333-.557-1.333-1.243V5.215L20.459 19.61c.235.189.537.304.866.304h.017c.329 0 .631-.115.869-.306l-.003.002L40 5.215v20.923c0 .685-.597 1.243-1.333 1.243z"/></symbol><symbol id="icon-facebook" viewBox="0 0 32 32"><path d="M21.328 5.312h2.923V.224C23.019.081 21.591 0 20.144 0h-.157.008c-4.213 0-7.099 2.65-7.099 7.52V12H8.25v5.688h4.646V32h5.698V17.69h4.461l.707-5.688h-5.168V8.08c0-1.643.443-2.768 2.734-2.768z"/></symbol><symbol id="icon-instagram" viewBox="0 0 32 32"><path d="M31.968 9.408c-.074-1.701-.349-2.869-.742-3.882-.424-1.111-1.054-2.059-1.85-2.837l-.001-.001c-.78-.792-1.724-1.419-2.778-1.827l-.054-.018C25.524.449 24.362.176 22.661.101 20.949.019 20.405 0 16.059 0c-4.344 0-4.888.019-6.595.094-1.699.074-2.869.349-3.88.742-1.112.424-2.06 1.054-2.839 1.85l-.001.001c-.791.78-1.418 1.724-1.825 2.778l-.018.054C.506 6.538.232 7.7.157 9.401c-.082 1.712-.101 2.256-.101 6.602 0 4.344.019 4.888.094 6.595.075 1.701.35 2.869.744 3.882.426 1.11 1.055 2.057 1.849 2.837l.001.001c.8.813 1.77 1.443 2.832 1.843 1.019.395 2.182.67 3.882.744 1.707.075 2.251.094 6.595.094 4.346 0 4.89-.019 6.595-.094 1.701-.074 2.869-.349 3.882-.742 2.157-.85 3.833-2.526 4.664-4.628l.019-.055c.394-1.019.669-2.182.744-3.882.075-1.707.093-2.251.093-6.595s-.006-4.888-.08-6.595zm-2.88 13.066c-.07 1.563-.333 2.406-.55 2.97-.552 1.399-1.64 2.486-3.004 3.024l-.036.012c-.56.219-1.411.482-2.968.55-1.688.075-2.194.094-6.464.094-4.269 0-4.782-.019-6.464-.094-1.563-.069-2.406-.331-2.97-.55-.721-.269-1.334-.676-1.836-1.192l-.001-.001c-.517-.503-.924-1.117-1.184-1.803L3.6 25.45c-.218-.563-.48-1.413-.549-2.97-.075-1.688-.094-2.195-.094-6.464 0-4.27.019-4.784.094-6.464.069-1.563.331-2.406.549-2.97.269-.722.678-1.337 1.198-1.837l.002-.002c.504-.517 1.119-.923 1.806-1.182l.034-.011c.56-.219 1.411-.48 2.968-.55 1.688-.074 2.195-.093 6.464-.093 4.275 0 4.782.019 6.464.093 1.563.069 2.406.331 2.97.55.693.256 1.325.662 1.837 1.194.531.52.938 1.144 1.195 1.84.218.56.48 1.411.549 2.968.075 1.688.094 2.194.094 6.464 0 4.269-.019 4.768-.094 6.458z"/><path d="M16.059 7.782c-4.539.002-8.218 3.682-8.219 8.221.091 4.471 3.737 8.06 8.221 8.06s8.13-3.589 8.221-8.052v-.009c-.001-4.54-3.681-8.22-8.221-8.221zm0 13.552c-2.945 0-5.332-2.388-5.332-5.333s2.388-5.333 5.333-5.333h.001c2.946 0 5.334 2.388 5.334 5.334s-2.388 5.334-5.334 5.334zM26.525 7.458c0 1.06-.86 1.92-1.92 1.92s-1.92-.86-1.92-1.92.86-1.92 1.92-1.92 1.92.86 1.92 1.92z"/></symbol><symbol id="icon-linkedin" viewBox="0 0 32 32"><path d="M31.992 32H32V20.262c0-5.741-1.235-10.163-7.947-10.163-3.227 0-5.392 1.77-6.277 3.45h-.093v-2.914h-6.365v21.363h6.627V21.42c0-2.786.528-5.48 3.978-5.48 3.398 0 3.45 3.179 3.45 5.658V32h6.619zM.528 10.635h6.635V32H.528V10.635zM3.843 0C1.72 0 0 1.721 0 3.843c0 2.12 1.722 3.878 3.843 3.878 2.12 0 3.842-1.757 3.842-3.878S5.965.002 3.844 0z"/></symbol><symbol id="icon-logo1" viewBox="0 0 29 32"><path d="M3.84 0l4.677 4.428h13.046v12.351l4.677 4.428V.001H3.84z"/><path d="M0 4.241v20.6h21.76v-8.188L8.655 4.246 0 4.241zm17.615 17.587H3.443V7.973h1.002V20.89h13.17v.938zM6.266 28.662l.524-1.078h.438l-.764 1.437v.838h-.397v-.838l-.764-1.437h.439l.524 1.078zm2.247.667h-.881l-.184.53h-.411l.859-2.275h.355l.861 2.275h-.413l-.186-.53zm-.77-.319h.659l-.33-.944-.33.944zm2.328.234c0-.105.029-.202.086-.289.058-.089.17-.193.339-.314-.069-.083-.131-.176-.182-.276l-.004-.008c-.031-.066-.05-.144-.052-.226 0-.179.054-.319.163-.422s.254-.156.437-.156c.166 0 .301.049.406.147.106.097.16.218.16.361v.003c0 .096-.027.186-.074.262l.001-.002c-.063.095-.142.174-.233.236l-.003.002-.155.113.44.518c.063-.125.095-.264.095-.417h.33c0 .28-.065.509-.196.689l.334.396h-.44l-.128-.152c-.154.115-.348.183-.558.183h-.025.001c-.225 0-.405-.06-.54-.179-.124-.11-.202-.27-.202-.447v-.021.001zm.753.343c.128 0 .248-.043.359-.128l-.497-.586-.049.035c-.125.095-.188.203-.188.325 0 .105.034.191.102.256.066.061.156.099.254.099h.019-.001zm-.21-1.466c0 .088.054.197.161.33l.173-.118.049-.039c.059-.052.097-.128.097-.212v-.009-.002c0-.059-.026-.112-.067-.149-.042-.04-.099-.064-.162-.064h-.019c-.066 0-.126.029-.167.075-.041.048-.066.111-.066.179v.01zm4.134.997c-.023.243-.113.432-.269.568s-.364.204-.623.204c-.181 0-.341-.043-.48-.128-.139-.089-.248-.214-.317-.362l-.002-.005c-.074-.16-.117-.347-.117-.544v-.22c0-.214.038-.403.114-.567.077-.164.186-.29.326-.378.143-.089.307-.133.494-.133.251 0 .453.068.606.205s.243.329.268.578h-.394c-.019-.163-.067-.281-.144-.353-.076-.073-.188-.109-.336-.109-.172 0-.304.063-.397.189-.092.125-.138.309-.141.552v.202c0 .246.044.433.132.563s.218.194.387.194c.155 0 .272-.035.35-.105s.128-.186.148-.348h.394zm2.17-.338c0 .223-.038.419-.115.588-.077.168-.188.297-.332.388-.143.09-.307.134-.494.134-.184 0-.349-.045-.493-.134-.146-.094-.261-.225-.332-.38l-.002-.006c-.075-.163-.119-.354-.119-.555v-.023.001-.128c0-.222.038-.418.117-.588s.19-.3.333-.389c.144-.091.308-.136.493-.136s.35.045.493.134c.143.089.255.217.333.384s.118.362.118.584v.126zm-.396-.118c0-.252-.048-.445-.143-.58-.085-.123-.225-.202-.384-.202-.007 0-.015 0-.022.001h.001-.016c-.159 0-.299.079-.384.2l-.001.002c-.096.133-.145.323-.147.567v.131c0 .25.049.444.146.58s.233.205.406.205c.175 0 .31-.067.403-.2.095-.133.142-.328.142-.584v-.118z"/></symbol><symbol id="icon-logo2" viewBox="0 0 25 32"><path d="M10.447 1.806h.084c.156 0 .324.015.49.03.734.052 1.463.162 2.18.329V.403c-.652-.172-1.42-.299-2.207-.357l-.042-.002c-.254-.02-.571-.035-.889-.043H9.779c-1.523.006-3.04.201-4.515.582-1.68.418-3.292 1.075-4.79 1.948v17.475c1.312-.729 2.832-1.339 4.431-1.75l.135-.029c1.123-.3 2.434-.51 3.78-.586l.052-.002h.052c.216-.011.433-.017.655-.018V15.83c-1.78.024-3.493.264-5.129.695l.147-.033c-.603.157-1.185.326-1.731.513l-.623.212V3.591l.266-.128c1.89-.918 4.096-1.513 6.424-1.649l.047-.002c.008-.001.018-.001.028-.001s.02 0 .029.001h-.001c.248-.012.497-.018.742-.018h.28c.129.003.258.006.388.014z"/><path d="M14.838 3.651h-.016c-.915 0-1.811-.077-2.684-.225l.094.013c-.277-.047-.55-.103-.814-.164V20.55c1.12.277 2.271.412 3.425.404 1.607-.007 3.162-.218 4.643-.61l-.128.029c1.817-.461 3.412-1.129 4.877-1.995l-.085.047V1.262c-1.311.728-2.83 1.338-4.429 1.751l-.136.03c-1.551.399-3.145.603-4.746.609zm6.907.299l.623-.209v13.63l-.266.129c-.903.443-1.963.834-3.065 1.118l-.119.026c-1.331.345-2.699.521-4.074.527-.411 0-.818-.017-1.214-.052l-.426-.038V5.064l.497.033c.361.023.735.034 1.141.034 1.841-.007 3.622-.248 5.32-.696l-.147.033c.777-.203 1.355-.38 1.924-.576l-.193.058zM1.684 25.977c-.167-.173-.401-.281-.661-.281-.011 0-.022 0-.033.001h.002-.014c-.139 0-.272.028-.393.078l.007-.003c-.237.095-.42.28-.51.512l-.002.006c-.049.123-.074.254-.072.386v2.335c-.006.164.026.328.092.479.055.12.135.226.234.313.093.078.203.135.32.166.114.031.231.048.349.048.13.001.258-.026.377-.081.351-.156.591-.5.591-.901v-.261h-.61v.221c0 .07-.013.137-.038.199l.001-.004c-.021.052-.051.095-.089.132-.07.054-.159.088-.255.089-.011.001-.023.002-.036.002-.103 0-.194-.05-.25-.127l-.001-.001c-.051-.082-.082-.182-.082-.289 0-.008 0-.016.001-.024v.001-2.177c-.004-.121.022-.24.075-.349.056-.087.153-.143.262-.143.013 0 .025.001.038.002H.986h.012c.107 0 .201.052.26.131l.001.001c.063.082.102.187.102.301v.013-.001.202h.604v-.238-.011c0-.143-.027-.28-.077-.405l.003.007c-.048-.128-.117-.237-.205-.329zm3.626-.026c-.186-.158-.429-.255-.694-.257-.124.001-.247.023-.364.066-.252.09-.45.276-.556.511l-.002.006c-.062.142-.092.297-.089.452v2.239c-.004.158.026.314.089.458.055.121.136.228.237.314.093.086.203.153.322.197.108.041.233.065.364.065.267 0 .51-.099.696-.263l-.001.001c.098-.088.176-.194.231-.314.063-.144.093-.301.089-.458v-2.239-.021c0-.156-.033-.304-.092-.438l.003.007c-.057-.128-.135-.237-.23-.327zm-.285 3.018c.001.01.001.022.001.034 0 .114-.047.217-.123.29-.077.065-.177.104-.287.104s-.21-.039-.288-.105l.001.001c-.076-.073-.123-.175-.123-.288 0-.013.001-.025.002-.037v.002-2.239c-.001-.01-.001-.022-.001-.034 0-.113.047-.216.123-.289.077-.065.177-.104.287-.104s.21.039.288.105l-.001-.001c.076.073.123.175.123.289 0 .012-.001.024-.002.036v-.002 2.24zm5.047 1v-4.24h-.586l-.77 2.244h-.011l-.777-2.244h-.581v4.239h.606V27.39h.011l.593 1.823h.302l.598-1.823h.011v2.578h.605zm3.441-3.942c-.093-.105-.211-.185-.342-.232-.124-.042-.267-.066-.416-.066h-.024.001-.9v4.24h.604v-1.656h.311c.188.009.375-.031.545-.116.139-.078.251-.188.329-.32l.002-.004c.07-.113.117-.238.138-.369.021-.133.033-.287.033-.444v-.04.002c.006-.203-.014-.407-.059-.606-.043-.153-.12-.284-.223-.39zm-.312 1.292c-.003.081-.023.157-.057.224l.001-.003c-.035.065-.089.116-.154.147l-.002.001c-.075.034-.162.054-.254.054-.011 0-.022 0-.033-.001h.002-.275V26.3h.311c.009 0 .019-.001.029-.001.088 0 .172.02.247.055l-.004-.002c.062.036.111.09.141.154l.001.002c.033.074.051.155.053.236v.282c0 .098.006.201 0 .291h-.006zm3.173-1.59h-.495l-.934 4.24h.604l.177-.911h.823l.178.911h.604l-.958-4.24zm-.557 2.752l.297-1.537h.011l.295 1.537h-.604zm4.46-.198h-.011l-.913-2.554h-.58v4.24h.604v-2.55h.012l.923 2.549h.569v-4.239h-.604v2.554zm3.691-2.554l-.486 1.686h-.012l-.486-1.686h-.639l.83 2.448v1.791h.604v-1.791l.83-2.447h-.64zM0 31.166h.291v.817h.198v-.817h.289v-.167H0v.168zm2.447-.168l-.382.985h.21l.081-.224h.392l.084.224h.215l-.391-.985h-.21zm-.03.595l.134-.365.134.365h-.268zm2.449.027h.228v.127c-.063.051-.145.082-.234.083h-.014c-.079 0-.149-.037-.195-.094-.046-.065-.073-.147-.073-.234 0-.008 0-.016.001-.023v.001c0-.219.095-.329.283-.329.006-.001.014-.001.021-.001.097 0 .178.067.201.157v.001l.194-.038c-.042-.192-.18-.289-.417-.289h-.013c-.127 0-.244.048-.331.127-.088.087-.143.208-.143.342 0 .013 0 .026.002.038v-.002.023c0 .132.048.254.127.347l-.001-.001c.087.09.209.146.343.146.011 0 .021 0 .032-.001h-.001.016c.155 0 .296-.06.402-.157v-.388h-.426v.166zm2.471-.622h-.198v.985h.689v-.167h-.49v-.817zm2.089 0h-.199v.985h.199v-.985zm2.042.657l-.403-.657h-.193v.985h.185v-.643l.396.643h.198v-.985h-.182v.658zm1.847-.106h.49v-.167h-.49v-.215h.527v-.168h-.727v.985h.747v-.167h-.548v-.266zm4.477-.163h-.388v-.388h-.198v.984h.198v-.431h.388v.431h.198v-.985h-.197v.388zm1.857.163h.492v-.167h-.492v-.215h.529v-.168h-.726v.985h.746v-.167h-.548v-.266zm2.519.001c.172-.027.258-.118.258-.274.001-.008.002-.018.002-.028 0-.078-.038-.148-.097-.191h-.001c-.073-.037-.159-.059-.25-.059-.014 0-.027 0-.04.001h.002-.417v.985h.197v-.412h.055c.039 0 .076.008.109.023l-.002-.001c.029.018.053.042.07.072l.215.313h.236l-.119-.192c-.054-.096-.128-.175-.216-.235l-.002-.002zm-.199-.137h-.146v-.247h.156c.013-.001.027-.002.042-.002.057 0 .111.009.162.026l-.004-.001c.027.024.044.058.044.096 0 .022-.006.043-.016.062v-.001c-.009.017-.022.032-.037.043-.049.015-.105.024-.162.024-.013 0-.027 0-.04-.001h.002zm2.099.136h.49v-.167h-.49v-.215h.529v-.168h-.728v.985h.747v-.167h-.548v-.266z"/></symbol><symbol id="icon-logo3" viewBox="0 0 31 32"><path d="M4.723 31.103c.023.001.044.01.06.025l.153.161c-.119.13-.266.234-.431.304-.194.077-.401.115-.61.109h-.031c-.196 0-.383-.038-.554-.106l.01.004c-.332-.134-.588-.397-.709-.725l-.003-.009c-.061-.164-.097-.353-.097-.55v-.022-.022c0-.198.038-.387.108-.56l-.004.01c.067-.165.168-.316.298-.444.13-.127.286-.225.459-.29.188-.07.389-.104.592-.102.188-.004.374.027.549.093.151.063.29.149.412.257l-.129.171c-.009.012-.019.023-.032.031-.013.009-.028.014-.045.014h-.007c-.021-.002-.039-.008-.056-.019l-.069-.045-.096-.059c-.087-.046-.189-.082-.296-.101l-.006-.001c-.063-.011-.135-.018-.209-.018h-.02.001-.016c-.147 0-.288.028-.417.079l.008-.003c-.13.051-.241.124-.333.216-.095.099-.169.216-.216.342-.054.145-.08.298-.079.452-.002.156.025.313.079.46.046.126.119.242.212.341.088.093.196.165.318.212.125.049.259.074.394.073.078.001.156-.004.234-.015.127-.015.247-.057.354-.122.054-.034.104-.071.151-.113.019-.018.045-.029.073-.03zm4.421-.807c.002.194-.033.387-.103.568-.067.172-.165.319-.288.44-.126.123-.276.221-.444.286l-.009.003c-.173.065-.373.102-.582.102s-.409-.037-.594-.106l.012.004c-.175-.069-.325-.167-.45-.29-.123-.123-.222-.271-.288-.436l-.003-.009c-.065-.169-.103-.364-.103-.568s.038-.399.107-.579l-.004.011c.065-.166.164-.318.29-.447.126-.119.276-.214.441-.276l.009-.003c.173-.066.373-.104.582-.104s.409.038.594.108l-.012-.004c.17.066.324.164.452.29.127.127.224.275.289.439.071.182.106.376.104.571zm-.402 0v-.024c0-.155-.027-.303-.076-.441l.003.009c-.087-.256-.278-.457-.522-.554l-.006-.002c-.126-.047-.271-.075-.423-.075s-.297.027-.432.078l.009-.003c-.251.099-.443.299-.528.55l-.002.006c-.097.298-.097.615 0 .912.087.256.279.457.524.552l.006.002c.273.097.573.097.846 0 .124-.048.234-.121.324-.214.092-.1.162-.216.205-.341.052-.147.076-.301.073-.456zm3.418.478l.041.102c.015-.036.028-.069.044-.102.017-.04.034-.073.052-.105l-.003.005.978-1.694c.019-.03.036-.048.056-.053s.043-.009.066-.009h.015-.001.289v2.755h-.342v-2.11c-.001-.014-.001-.031-.001-.048s.001-.033.002-.05v.002l-.984 1.718c-.013.026-.033.048-.057.062h-.001c-.023.014-.052.022-.082.022h-.057c-.03.001-.06-.007-.084-.022s-.045-.036-.058-.062v-.001l-1.012-1.73v2.212h-.331v-2.75h.303c.024 0 .046.003.068.01h-.002c.024.011.042.029.053.052v.001l.999 1.696c.018.028.035.06.048.094l.001.004zm3.681-.136v1.031h-.383v-2.75h.887c.158 0 .311.022.455.063l-.012-.003c.124.034.239.092.337.171.085.074.15.167.191.27.045.112.067.232.066.352.002.121-.022.24-.071.352-.049.109-.118.201-.205.274l-.001.001c-.095.08-.209.143-.333.181l-.007.002c-.149.045-.305.067-.461.064l-.463-.007zm0-.296h.463c.101.002.201-.013.297-.042.083-.027.154-.068.215-.12l-.001.001c.056-.049.1-.11.129-.178l.001-.003c.029-.066.046-.144.046-.225v-.008c0-.008.001-.018.001-.028 0-.071-.015-.138-.041-.199l.001.003c-.032-.074-.077-.137-.133-.188-.126-.094-.285-.15-.457-.15-.021 0-.041.001-.061.002h.003-.463v1.134zm5.145 1.331h-.307c-.03 0-.057-.01-.079-.026-.021-.017-.038-.038-.049-.063v-.001l-.26-.665h-1.307l-.27.665c-.011.025-.027.046-.047.061-.022.017-.051.028-.081.028h-.307l1.148-2.756h.398l1.164 2.756zm-1.895-1.023h1.08l-.455-1.122c-.03-.07-.06-.157-.083-.245l-.003-.014-.045.144c-.015.049-.029.088-.045.126l.003-.009-.452 1.119zm3.549-1.72c.023.013.043.03.058.05l1.674 2.076v-2.139h.342v2.756h-.196c-.027 0-.052-.006-.074-.017h.001c-.024-.014-.044-.031-.061-.051L22.71 29.53c.002.031.002.063 0 .095v2.049h-.342v-2.756h.203c.024 0 .047.004.068.013zm4.897 1.647v1.094h-.383v-1.094l-1.058-1.66H26.445c.028 0 .054.009.075.024.021.018.038.038.052.061l.001.001.662 1.07c.045.07.085.151.114.236l.002.008.05-.118c.019-.043.04-.086.066-.126l.653-1.078c.014-.022.031-.042.05-.059.02-.017.047-.027.076-.027h.352l-1.06 1.667zm-15.566-6.284c.167.02.335.037.505.051 2.582-1.101 4.768-2.902 6.282-5.18s2.29-4.93 2.23-7.625l-2.846-2.712c.189.894.297 1.921.297 2.974 0 2.015-.396 3.937-1.115 5.694l.036-.1c-1.09 2.731-2.956 5.12-5.389 6.899z"/><path d="M10.954 24.167l.077.015c2.6-1.773 4.583-4.247 5.692-7.104.627-1.564.99-3.377.99-5.275 0-1.296-.17-2.553-.488-3.75l.023.102-4.054-3.862c1.269 2.396 2.014 5.238 2.014 8.254 0 .702-.04 1.394-.119 2.075l.008-.083c-.396 3.519-1.833 6.857-4.143 9.628zm13.75-9.443c-.689 2.962-2.361 5.632-4.77 7.616-.665.553-1.406 1.066-2.191 1.51l-.075.039c2.039-.578 3.804-1.556 5.285-2.851l-.016.013c1.465-1.281 2.625-2.875 3.38-4.679l.031-.084-1.645-1.565z"/><path d="M24.06 14.288l-2.341-2.23c-.053 2.681-.865 5.162-2.23 7.249l.032-.053c-1.394 2.169-3.373 3.943-5.729 5.137h.012c.525 0 1.049-.03 1.571-.089 2.251-.883 4.15-2.237 5.65-3.95l.014-.017c1.454-1.66 2.512-3.704 3.005-5.958l.016-.089zM11.294 2.664L8.501 0c-2.497.919-4.644 2.535-6.16 4.636S.008 9.225.001 11.775c.01 2.818 1.005 5.552 2.829 7.77s4.372 3.793 7.242 4.476c2.562-2.973 4.061-6.647 4.281-10.488s-.851-7.648-3.059-10.87zm19.218 11.214c-.01-3.343-1.408-6.547-3.89-8.91s-5.843-3.696-9.352-3.706c-1.622-.002-3.229.284-4.741.841l17.099 16.29c.559-1.335.884-2.886.884-4.513v-.002z"/></symbol><symbol id="icon-logo4" viewBox="0 0 60 32"><path d="M9.229 9.548h-.002c-1.684 0-3.049 1.331-3.049 2.971v.002c0 1.64 1.365 2.971 3.048 2.971h.002c1.684 0 3.049-1.331 3.049-2.971v-.002c0-1.64-1.365-2.97-3.049-2.97zm22.501-.949c-.005-2.279-.936-4.463-2.59-6.075C27.489.913 25.247.005 22.909 0c-2.339.004-4.581.912-6.236 2.523s-2.585 3.797-2.59 6.076v12.566S31.728 19.25 31.73 8.601v-.002zM0 25.289c.008 1.659.697 3.155 1.801 4.226l.002.001c1.121 1.086 2.65 1.756 4.336 1.758 1.686-.001 3.215-.671 4.337-1.759l-.002.002c1.106-1.071 1.795-2.567 1.804-4.224v-8.746S0 17.882 0 25.29zm6.14 1.566h-.002c-.331 0-.639-.098-.897-.267l.006.004c-.262-.171-.466-.41-.589-.693l-.004-.01c-.077-.177-.122-.382-.122-.598 0-.109.011-.215.033-.317l-.002.01c.062-.304.215-.583.439-.802.22-.213.5-.365.814-.427l.01-.002c.312-.061.635-.03.929.089s.545.319.722.577c.17.244.271.546.271.872 0 .216-.045.422-.125.609l.004-.01c-.08.191-.199.365-.348.511s-.327.262-.522.341c-.182.076-.394.12-.616.12H6.14v-.006zm12.532-.971h-1.256v1.297h-.655v-3.173h2.067v.53h-1.412v.819h1.255v.528zm3.143-.218c0 .313-.055.586-.166.822s-.269.417-.475.545c-.194.121-.43.192-.682.192h-.026.001c-.263 0-.498-.063-.704-.19-.208-.131-.373-.314-.476-.533l-.003-.008c-.109-.23-.173-.5-.173-.785v-.028.001-.158c0-.313.056-.588.168-.825.113-.238.272-.42.477-.547.207-.128.442-.192.707-.192s.499.064.704.192c.206.127.365.309.477.547.114.237.17.511.17.822v.141zm-.662-.144c0-.333-.06-.586-.179-.759-.106-.157-.284-.26-.485-.26-.009 0-.018 0-.027.001h.001c-.007 0-.016-.001-.025-.001-.201 0-.378.102-.482.256l-.001.002c-.119.17-.179.42-.181.749v.155c0 .324.06.576.179.755s.29.268.514.268c.008 0 .017.001.026.001.2 0 .375-.101.479-.255l.001-.002c.118-.173.177-.424.179-.755v-.155zm2.783.826v-.018c0-.107-.051-.203-.13-.264l-.001-.001c-.087-.067-.244-.137-.471-.21-.209-.065-.388-.139-.558-.227l.019.009c-.36-.195-.54-.457-.54-.787 0-.171.048-.324.144-.458.098-.135.236-.24.417-.316s.385-.113.61-.113c.227 0 .429.042.607.124s.314.197.412.347c.099.15.149.32.149.511h-.655c0-.146-.045-.258-.137-.338-.092-.082-.22-.123-.386-.123-.159 0-.284.034-.372.103-.082.058-.134.152-.134.259v.008c0 .103.052.189.156.259s.258.135.46.196c.372.112.643.251.813.417s.255.372.255.618c0 .275-.104.491-.312.647s-.487.234-.839.234c-.244 0-.466-.045-.667-.133-.189-.08-.344-.207-.458-.365l-.002-.003c-.099-.147-.157-.328-.157-.522v-.019.001h.656c0 .35.209.525.628.525.156 0 .277-.031.364-.094.08-.057.131-.149.131-.254v-.013.001zm3.491-1.811h-.973v2.644H25.8v-2.644h-.959v-.53h2.586v.53zm2.285 1.268h-1.255v.85h1.474v.525h-2.128v-3.173h2.124v.53h-1.469v.756h1.255v.513zm1.777.214h-.521v1.162h-.655v-3.173h1.18c.375 0 .664.083.868.251s.305.403.305.708c0 .216-.048.397-.141.543-.105.152-.25.271-.419.341l-.006.002.687 1.297v.03h-.702l-.595-1.162zm-.521-.53h.528c.164 0 .291-.042.381-.124.084-.082.136-.197.136-.323 0-.008 0-.017-.001-.025v.001c0-.15-.042-.268-.129-.353-.084-.086-.214-.129-.39-.129h-.525v.953zm3.963.573v1.119h-.654v-3.173h1.238c.238 0 .448.043.628.131.182.087.321.211.418.372s.147.342.147.548c0 .311-.107.557-.321.737-.212.179-.506.268-.883.268h-.573zm0-.529h.584c.173 0 .305-.041.394-.123.092-.081.138-.197.138-.348 0-.007.001-.015.001-.023 0-.137-.053-.262-.139-.355-.092-.096-.218-.145-.38-.149h-.599v.997zm4.138.272h-1.255v.85h1.474v.525H37.16v-3.173h2.124v.53h-1.47v.756h1.256v.513zm3.036-1.268h-.973v2.644h-.654v-2.644h-.959v-.53h2.586v.53zm2.284 1.268h-1.256v.85h1.474v.525H42.48v-3.173h2.123v.53h-1.47v.756h1.256v.513zm1.777.214h-.521v1.162h-.655v-3.173h1.18c.375 0 .665.083.868.251s.305.403.305.708c0 .216-.048.397-.141.543-.105.152-.25.271-.419.341l-.006.002.687 1.297v.03h-.703l-.595-1.162zm-.521-.53h.527c.164 0 .292-.042.382-.124.084-.082.136-.197.136-.323 0-.008 0-.017-.001-.025v.001c0-.15-.043-.268-.129-.353-.084-.086-.214-.129-.391-.129h-.525v.953zm3.844.859v-.018c0-.108-.051-.204-.131-.264l-.001-.001c-.088-.067-.244-.137-.471-.21-.209-.065-.388-.139-.558-.227l.019.009c-.36-.195-.54-.457-.54-.787 0-.171.048-.324.144-.458s.236-.24.417-.316c.182-.075.385-.113.61-.113.227 0 .429.042.606.124s.315.197.412.347c.099.15.149.32.149.511h-.655c0-.146-.045-.258-.137-.338-.092-.082-.22-.123-.386-.123-.16 0-.284.034-.372.103-.082.058-.134.152-.134.259v.008c0 .103.052.189.156.259s.258.135.46.196c.372.112.643.251.813.417s.255.372.255.618c0 .275-.104.491-.312.647s-.487.234-.839.234c-.244 0-.466-.045-.667-.133-.188-.08-.344-.207-.458-.365l-.002-.003c-.099-.147-.157-.328-.157-.522v-.019.001h.656c0 .35.208.525.627.525.156 0 .278-.031.365-.094.079-.057.13-.149.13-.253v-.014.001z"/></symbol><symbol id="icon-logo5" viewBox="0 0 40 32"><path d="M3.056 26.742c.157.194.24.438.236.688.001.016.001.034.001.053 0 .324-.141.615-.365.815l-.001.001c-.304.231-.681.343-1.061.317H.001v-4.361h1.827c.031-.002.067-.003.103-.003.341 0 .657.11.914.297l-.004-.003c.218.184.355.457.355.763 0 .019-.001.037-.002.055v-.003c.011.24-.065.477-.212.667-.142.173-.338.293-.556.34.247.046.471.177.63.373zm-2.188-.658h.78c.178.014.354-.038.497-.145.104-.095.169-.231.169-.383 0-.015-.001-.03-.002-.045v.002c.001-.011.001-.024.001-.037 0-.153-.064-.291-.167-.389-.124-.093-.28-.149-.45-.149-.022 0-.043.001-.064.003h.003-.767v1.144zm1.354 1.672c.114-.1.186-.246.186-.408 0-.012 0-.024-.001-.036v.002c.001-.01.001-.021.001-.032 0-.166-.073-.314-.189-.416l-.001-.001c-.132-.099-.299-.159-.48-.159-.018 0-.036.001-.054.002h.002-.818v1.199h.829c.187.011.372-.042.524-.151zm4.567.861l-1.016-1.704h-.382v1.704h-.874v-4.361h1.654c.034-.003.074-.004.114-.004.396 0 .76.142 1.042.377l-.003-.002c.245.251.397.595.397.974 0 .313-.103.601-.277.834l.003-.004c-.204.235-.483.392-.789.443l1.083 1.743H6.79zm-1.397-2.299h.715c.497 0 .745-.22.745-.66.001-.011.001-.024.001-.037 0-.176-.07-.336-.184-.453-.133-.112-.306-.18-.495-.18-.024 0-.047.001-.07.003h.003-.724l.009 1.328zm6.176 1.421H9.826l-.308.878h-.916l1.6-4.313h.991l1.593 4.312h-.916l-.301-.878zm-.233-.66l-.637-1.84-.637 1.84h1.273zm6.215 1.538h-.869l-1.945-2.965v2.965h-.866v-4.361h.866l1.945 2.982v-2.982h.868v4.361zm4.952-1.044c-.182.33-.45.593-.775.764l-.01.005c-.378.191-.797.286-1.22.274h-1.546v-4.361h1.546c.02-.001.044-.001.067-.001.42 0 .817.1 1.168.277l-.015-.007c.332.168.606.433.785.761.171.333.272.727.272 1.144s-.1.811-.278 1.158l.007-.014zm-.993-.104c.239-.278.384-.642.384-1.041s-.145-.763-.386-1.043l.002.002c-.264-.232-.612-.374-.993-.374-.033 0-.065.001-.098.003h.004-.603v2.823h.603c.028.002.061.003.094.003.381 0 .729-.141.994-.375l-.002.001zM12.112 0s11.201 4.246 10.962 10.39v10.392S11.881 16.534 12.115 10.39L12.112 0zm20.941 18.349c2.005-1.402 4.428-2.346 7.049-2.628l.068-.006v-3.253c-2.995 1.181-5.437 3.227-7.081 5.827l-.035.06z"/><path d="M31.782 19.329c1.749-3.487 4.693-6.158 8.283-7.513l.105-.035V2.408S24.218 8.456 24.555 17.205v14.796s.711-.27 1.829-.778c0-.473 0-.95.051-1.43.35-4.205 2.342-7.887 5.325-10.446l.021-.017z"/><path d="M30.266 24.825c.084-1.026.27-2.041.558-3.03-2.038 2.401-3.303 5.514-3.378 8.921v.016c1.299-.625 2.304-1.165 3.286-1.741l-.218.118c-.191-.908-.3-1.952-.3-3.021 0-.445.019-.885.056-1.32l-.004.057zm.634.053c-.031.359-.049.777-.049 1.199 0 .948.09 1.874.261 2.772l-.015-.092c4.357-2.619 9.255-6.664 9.066-11.553v-.426c-3.246.375-6.107 1.788-8.297 3.894l.005-.005c-.501 1.234-.846 2.664-.968 4.158l-.003.052z"/></symbol><symbol id="icon-logo6" viewBox="0 0 62 32"><path d="M31.123 14.854c-.251-.36-.401-.806-.401-1.287 0-.05.002-.101.005-.15v.007-2.074c0-.637.131-1.12.394-1.45s.715-.495 1.356-.494c.602 0 1.03.141 1.282.422.275.359.41.798.378 1.241v.487h-1.076v-.494c0-.019.001-.041.001-.064 0-.148-.012-.293-.034-.435l.002.016c-.017-.115-.073-.214-.153-.287-.095-.071-.215-.113-.345-.113-.016 0-.032.001-.048.002h.002c-.014-.001-.029-.002-.045-.002-.137 0-.264.045-.367.121l.002-.001c-.09.081-.154.19-.178.313l-.001.004c-.031.169-.045.341-.042.513v2.518c-.017.243.031.486.138.707.055.075.128.134.212.171l.003.001c.063.027.136.044.213.044.023 0 .045-.001.067-.004h-.003c.013.001.029.002.044.002.128 0 .245-.044.338-.117l-.001.001c.084-.079.142-.184.16-.303v-.003c.026-.167.037-.336.034-.504v-.511h1.076v.466c.003.038.004.083.004.129 0 .441-.141.85-.38 1.182l.004-.006c-.247.308-.669.462-1.288.462s-1.088-.164-1.354-.506zm4.485.022c-.272-.323-.408-.794-.408-1.416v-2.183c0-.616.136-1.082.408-1.399s.726-.474 1.364-.473c.633 0 1.085.158 1.358.473.271.317.41.783.41 1.399v2.183c0 .616-.139 1.089-.415 1.414s-.726.487-1.353.487c-.626 0-1.09-.164-1.364-.485zm1.865-.524c.097-.202.142-.424.129-.646v-2.672c.001-.021.002-.047.002-.072 0-.204-.048-.397-.133-.569l.003.007c-.056-.076-.13-.136-.216-.173l-.003-.001c-.062-.027-.135-.042-.211-.042-.026 0-.051.002-.076.005h.003c-.022-.003-.047-.005-.073-.005-.077 0-.15.016-.216.044l.004-.001c-.09.038-.165.098-.22.172l-.001.001c-.097.197-.142.415-.129.633v2.685c-.014.223.031.444.129.646.063.067.138.121.223.158l.004.002c.082.036.177.057.277.057s.195-.021.281-.059l-.005.002c.089-.039.164-.093.226-.16v-.013zm2.562-4.884h1.16l.872 4.028.892-4.028h1.128l.113 5.813h-.833l-.089-4.04-.861 4.04h-.669l-.892-4.054-.083 4.054h-.843l.104-5.812zm5.465 0h1.806c1.041 0 1.561.55 1.561 1.651 0 1.054-.548 1.58-1.643 1.579h-.616v2.583h-1.114l.007-5.812zm1.543 2.484c.11.014.222.004.328-.028s.203-.085.285-.155c.128-.197.184-.427.161-.657.001-.019.001-.042.001-.064 0-.164-.02-.324-.057-.476l.003.014c-.017-.062-.045-.115-.083-.161l.001.001c-.039-.047-.085-.086-.138-.116l-.002-.001c-.129-.059-.279-.094-.438-.094-.021 0-.042.001-.063.002h.003-.433v1.736h.433zm3.431-2.484h1.197l1.229 5.813h-1.039l-.243-1.341H50.55l-.25 1.341h-1.054l1.229-5.812zm1.023 3.799l-.417-2.44-.417 2.44h.834zm2.394-3.799h.781l1.494 3.316V9.468h.925v5.812h-.742l-1.503-3.462v3.462h-.957l.002-5.812zm5.367 3.596l-1.242-3.588h1.046l.758 2.305.711-2.305h1.023l-1.226 3.588v2.216h-1.07v-2.216zm-26.413 4.758v.304h-.91v2.362h-.381v-2.362h-.914v-.304h2.205zm2.852 2.666h-.302c-.028 0-.054-.01-.075-.026-.022-.015-.038-.036-.048-.06v-.001l-.263-.633h-1.262l-.263.633c-.008.028-.022.052-.04.072-.021.016-.047.025-.076.025h-.301l1.115-2.666h.387l1.128 2.655zm-1.847-.99h1.053l-.445-1.085c-.028-.067-.057-.15-.08-.236l-.003-.014-.042.141-.04.111-.442 1.083zm3.769.728c.07.003.139.003.209 0 .061-.006.12-.017.179-.032.064-.015.117-.032.169-.052l-.009.003c.049-.019.098-.042.15-.065v-.6h-.451c-.021 0-.041-.008-.055-.021-.014-.011-.022-.028-.022-.047v-.207h.865v1.022c-.135.092-.291.166-.459.214l-.012.003c-.079.023-.173.043-.27.055l-.009.001c-.096.011-.208.017-.321.017h-.017c-.197 0-.386-.037-.56-.103l.011.004c-.173-.067-.321-.161-.446-.279l.001.001c-.12-.117-.218-.258-.285-.414l-.003-.008c-.065-.158-.102-.342-.102-.534v-.02-.018c0-.194.037-.379.104-.549l-.004.01c.064-.158.162-.301.287-.422.127-.12.279-.214.446-.277.191-.068.394-.102.598-.099.104 0 .207.007.31.023.09.014.179.036.264.067.079.028.153.063.223.106.069.042.134.088.195.139l-.108.165c-.009.015-.021.027-.036.036-.015.009-.032.014-.051.014-.026-.001-.049-.008-.069-.021h.001c-.044-.023-.08-.043-.114-.066l.005.003c-.042-.026-.092-.05-.143-.07l-.007-.002c-.057-.023-.126-.043-.197-.058l-.008-.001c-.081-.015-.173-.023-.268-.023h-.016.001-.013c-.15 0-.293.027-.425.077l.008-.003c-.128.049-.237.121-.328.211-.093.096-.163.209-.207.332-.047.132-.075.285-.075.444s.027.312.078.454l-.003-.009c.049.125.125.24.223.335.092.092.202.163.326.211.142.046.292.064.442.053zm3.553-.042h1.217v.304h-1.59v-2.666h.381l-.009 2.362zm2.484.303h-.381v-2.664h.381v2.666zm1.418-2.653c.022.013.042.029.058.049l1.63 2.01c-.001-.014-.002-.031-.002-.048s.001-.033.002-.05v.002-1.986h.333v2.676h-.192c-.004 0-.009.001-.013.001-.025 0-.049-.006-.071-.016h.001c-.023-.014-.043-.031-.06-.05l-1.628-2.007v2.072h-.319v-2.665h.198c.022 0 .043.004.063.013zm4.827-.012v.294H48.55v.88h1.095v.282H48.55v.91h1.351v.294h-1.743v-2.659h1.743zM9.95 1.359l16.929 4.55v15.946L9.952 17.308V1.359zM8.865 0v18.081l19.098 5.135V5.136L8.865-.001z"/><path d="M19.1 31.61L0 26.471V8.391l19.1 5.137V31.61z"/><path d="M9.181 1.155l16.707 4.493-7.105 6.728-16.71-4.495L9.18 1.154zM8.865 0L0 8.392l19.1 5.137 8.863-8.392L8.865 0zm11.31 30.593l7.787-7.374-7.787-2.096v9.47z"/></symbol><symbol id="icon-smartphone" viewBox="0 0 21 32"><path d="M18.133 0H3.2C1.436 0 0 1.34 0 2.987v25.89c0 1.647 1.436 2.987 3.2 2.987h14.933c1.764 0 3.2-1.34 3.2-2.987V2.987c0-1.647-1.436-2.987-3.2-2.987zM3.2 1.99h14.933c.589 0 1.067.448 1.067.996v20.911H2.133V2.986c0-.548.478-.996 1.067-.996zm14.933 27.883H3.2c-.589 0-1.067-.448-1.067-.996V25.89H19.2v2.987c0 .548-.478.994-1.067.994z"/><path d="M5.022 27.177c.192.174.312.425.312.704s-.12.53-.312.703l-.001.001c-.198.182-.464.293-.755.293s-.557-.111-.756-.294l.001.001c-.192-.174-.312-.425-.312-.704s.12-.53.312-.703l.001-.001c.198-.182.464-.293.755-.293s.557.111.756.294l-.001-.001z"/></symbol><symbol id="icon-twitter" viewBox="0 0 32 32"><path d="M32 6.078c-1.1.493-2.376.857-3.713 1.028l-.068.007c1.36-.817 2.382-2.078 2.873-3.579l.013-.046c-1.197.722-2.591 1.273-4.076 1.573l-.084.014c-1.2-1.279-2.9-2.076-4.787-2.076-3.622 0-6.558 2.936-6.558 6.558v.004c0 .52.043 1.021.152 1.496-5.454-.266-10.28-2.88-13.522-6.861-.564.949-.899 2.092-.902 3.313v.001c0 2.272 1.171 4.286 2.914 5.451-1.091-.03-2.107-.325-2.994-.823l.033.017v.072c.003 3.165 2.236 5.807 5.213 6.44l.043.008c-.499.136-1.071.215-1.662.215h-.061.003c-.419 0-.843-.024-1.242-.112.85 2.598 3.261 4.509 6.13 4.57-2.215 1.746-5.045 2.8-8.122 2.8H1.57h.001-.062c-.531 0-1.055-.034-1.569-.099l.061.006c2.826 1.846 6.287 2.944 10.004 2.944h.063-.003c12.072 0 18.672-10 18.672-18.669 0-.288-.01-.57-.024-.848 1.299-.936 2.39-2.064 3.258-3.355l.03-.047z"/></symbol></defs></svg>